<svg width="139" height="183" viewBox="0 0 139 183" fill="none" xmlns="http://www.w3.org/2000/svg">
<path d="M24.5 9L1 56C6.58786 51.469 9.77638 48.9729 20.5 48.5C26.2878 39.7714 30.6367 36.8381 40.8723 36C46.0557 28.7428 49.8979 26.2318 59 25.5C64.0764 19.0787 68.5415 16.1519 79.5 12.5L24.5 9Z" fill="#7DD3FC"/>
<path d="M53 56L40.8723 36M24.5 9L1 56C6.58786 51.469 9.77638 48.9729 20.5 48.5C26.2878 39.7714 30.6367 36.8381 40.8723 36M24.5 9L40.8723 36M24.5 9L79.5 12.5C68.5415 16.1519 64.0764 19.0787 59 25.5C49.8979 26.2318 46.0557 28.7428 40.8723 36" stroke="#0284C7" stroke-width="2"/>
<path d="M20.5 48.5L25 10L59 25.5" stroke="#0284C7"/>
<path d="M81 70L102 9.5L126 1" stroke="#0284C7" stroke-width="2"/>
<path d="M6.77802 91.086C22.6301 87.2688 29.5901 88.742 40.022 95.0822C63.8695 87.0226 77.2074 87.151 101.052 95.0822C117.469 89.029 125.382 87.99 136.777 91.086C138.262 135.901 132.984 157.187 101.052 181C77.2183 176.586 63.8554 178.142 40.022 181C7.32236 148.969 3.98749 128.666 6.77802 91.086Z" fill="#16A34A" stroke="#86EFAC" stroke-width="2"/>
<path d="M9 90.1445C24.3645 86.4616 31.1103 87.8829 41.2214 94C64.3352 86.2241 77.2628 86.348 100.374 94C116.286 88.1599 123.955 87.1574 135 90.1445L100.374 54H41.2214L9 90.1445Z" fill="#FEF9C3" stroke="#FEFCE8" stroke-width="2"/>
</svg>
