<svg width="150" height="150" viewBox="0 0 150 150" fill="none" xmlns="http://www.w3.org/2000/svg">
<path d="M107.22 110.753V140.672C86.784 148.371 75.57 148.27 55.9583 140.834V121.11C42.9467 122.582 35.8433 119.797 30.115 115.356C22.3063 107.139 21.5673 97.4621 10 93.4918C18.4765 88.4986 23.3445 91.7082 32.1514 103.848C38.8983 113.375 44.2237 114.621 55.9583 110.915C56.0997 99.0053 59.444 95.5925 70.726 94.8043C19.0393 94.8043 9.19423 57.9803 30.115 28.0611C22.7312 2.74458 31.3301 -4.42598 55.9583 14.2521L107.22 14.0902C131.848 -4.58794 140.447 2.58262 133.063 27.8991C153.984 57.8182 144.139 94.6425 92.4523 94.6425C103.734 95.4307 107.079 98.8432 107.22 110.753Z" stroke="url(#paint0_linear_166_267)" stroke-width="2"/>
<path d="M49.3876 64.47C41.9536 57.91 41.2663 50.605 47.8766 45.3928C46.9323 48.8328 45.9879 51.6475 48.6323 55.2964L50.1433 54.775L51.8429 55.7132H53.3539V61.7596L56.5646 59.9875H58.8309L62.4196 58.945V64.1575L66.5746 63.3235V64.1575L68.4633 63.3235L70.9186 68.64L74.1293 63.8446L76.3959 66.0339L78.6623 62.3853L82.0619 65.721L85.8393 62.1768L91.8829 67.806L96.7936 61.2385L102.46 64.1575L103.404 62.6978L106.426 63.3235L107.559 58.945L112.092 59.6746L113.036 53.7325H115.114V53.0028L116.625 53.3157C117.808 51.7543 117.983 50.5825 116.625 47.4778C120.01 50.9639 120.889 53.1643 119.08 57.9025H115.68C115.02 64.1403 113.66 66.5682 110.014 69.5782L107.559 68.2232L105.293 70.2039L103.404 68.9528L98.4933 71.6632L97.3603 69.2657C94.4469 72.0146 92.6629 73.2571 89.2389 74.9992L83.0063 71.1421L79.9843 74.061L78.2846 73.5396L77.1513 74.061L74.6959 72.81L72.9963 73.2271L68.4633 70.8292L66.0079 71.6632L63.7416 70.2039L61.0976 72.2889C60.0046 72.2443 58.8303 70.94 56.5646 68.2232L54.8649 69.2657C52.6036 67.776 51.7496 66.6132 50.7096 64.1575L49.3876 64.47Z" fill="url(#paint1_linear_166_267)" stroke="url(#paint2_linear_166_267)"/>
<path d="M100.747 44.626C106.141 42.5514 107.892 36.6085 111.085 29.9143C103.946 26.7737 97.992 28.911 84.3407 38.7793C87.7557 44.5071 95.353 46.7007 100.747 44.626Z" fill="url(#paint3_linear_166_267)" stroke="url(#paint4_linear_166_267)"/>
<path d="M63.133 44.626C57.919 42.5514 56.226 36.6085 53.1396 29.9143C60.041 26.7737 65.796 28.911 78.9923 38.7793C75.6913 44.5071 68.347 46.7007 63.133 44.626Z" fill="url(#paint5_linear_166_267)" stroke="url(#paint6_linear_166_267)"/>
<defs>
<linearGradient id="paint0_linear_166_267" x1="74.762" y1="75" x2="106.634" y2="147.607" gradientUnits="userSpaceOnUse">
<stop stop-color="#202225"/>
<stop offset="1" stop-color="#BB2D3B"/>
</linearGradient>
<linearGradient id="paint1_linear_166_267" x1="81.6666" y1="45.3928" x2="88.2242" y2="85.4204" gradientUnits="userSpaceOnUse">
<stop stop-color="#081C65"/>
<stop offset="1" stop-color="#13ADDF"/>
</linearGradient>
<linearGradient id="paint2_linear_166_267" x1="80.5713" y1="60.196" x2="83.3413" y2="77.7047" gradientUnits="userSpaceOnUse">
<stop stop-color="#202225"/>
<stop offset="1" stop-color="#BB2D3B"/>
</linearGradient>
<linearGradient id="paint3_linear_166_267" x1="97.713" y1="28.5714" x2="103.53" y2="50.3727" gradientUnits="userSpaceOnUse">
<stop stop-color="#081C65"/>
<stop offset="1" stop-color="#13ADDF"/>
</linearGradient>
<linearGradient id="paint4_linear_166_267" x1="97.331" y1="36.9825" x2="99.7949" y2="46.5444" gradientUnits="userSpaceOnUse">
<stop stop-color="#202225"/>
<stop offset="1" stop-color="#BB2D3B"/>
</linearGradient>
<linearGradient id="paint5_linear_166_267" x1="66.066" y1="28.5714" x2="72.056" y2="50.2716" gradientUnits="userSpaceOnUse">
<stop stop-color="#081C65"/>
<stop offset="1" stop-color="#13ADDF"/>
</linearGradient>
<linearGradient id="paint6_linear_166_267" x1="65.6966" y1="36.9825" x2="68.2347" y2="46.5028" gradientUnits="userSpaceOnUse">
<stop stop-color="#202225"/>
<stop offset="1" stop-color="#BB2D3B"/>
</linearGradient>
</defs>
</svg>
