<svg width="205" height="136" viewBox="0 0 205 136" fill="none" xmlns="http://www.w3.org/2000/svg">
<path d="M40.6363 107.84V120.4C40.6363 121.04 40.3163 122.56 39.9963 122.64C38.7163 122.8 37.6763 122.96 36.7163 122.96C35.5963 122.96 34.6363 122.8 33.7563 122.48C32.5563 117.68 28.7963 110.72 24.9563 105.6C23.5163 105.84 21.9963 106.08 20.5563 106.24C17.1963 106 13.4363 105.36 10.1562 103.6V104.4L9.99625 121.12C9.59625 122.64 8.07625 122.72 6.63625 122.72H3.67625C2.87625 122.72 2.39625 121.84 2.39625 121.04C2.39625 120.88 2.39625 120.72 2.47625 120.48C2.55625 115.2 2.71625 110 2.71625 104.72C2.71625 102.08 2.79625 99.44 3.03625 96.96C1.75625 95.12 1.19625 93.6 1.19625 92.32C1.19625 90.64 2.23625 89.44 4.15625 88.88C7.35625 72.72 15.3563 62 25.8363 62C38.7163 62 40.6363 80.96 40.7963 96.08C43.2763 94.48 44.2362 93.68 44.2362 92.56C44.2362 92.32 44.2362 92.16 44.1563 91.92C45.9963 91.92 46.7163 92.88 46.7163 94C46.7163 95.2 45.9163 96.64 44.6363 97.6C43.3563 98.56 42.0763 99.52 40.7963 100.24C40.7163 103.12 40.6363 105.68 40.6363 107.84ZM25.2763 67.76C19.5963 67.76 14.3163 76.8 11.7563 89.04C12.3163 89.12 12.8763 89.2 13.4363 89.36C17.8363 91.28 23.1163 95.68 27.9163 101.36C29.9963 100.88 32.0763 100.32 34.0763 99.52C34.1563 97.2 34.3163 94.48 34.3163 91.68C34.3163 80.56 32.7963 67.76 25.2763 67.76ZM10.9563 93.6C10.7162 95.28 10.4763 96.96 10.3963 98.72C13.7563 101.12 17.8363 102.08 22.0763 102.08C18.3963 97.92 14.3963 94.64 10.9563 93.6ZM33.5963 107.12C33.5963 106.56 33.6763 105.2 33.8363 103.44C32.7163 103.84 31.5963 104.16 30.3963 104.48C31.5163 105.92 32.5563 107.44 33.5963 109.04V107.12ZM52.5538 91.28C53.7538 91.28 53.9138 91.84 53.9138 93.04C53.8338 98.8 51.5138 100.48 50.1538 111.6V111.92C50.1538 112.64 50.5538 113.28 51.0338 113.28C52.1538 113.28 53.9138 112.32 56.3938 111.44C57.5938 110.96 59.1938 110.16 59.9938 110.16C60.7938 110.16 60.8738 111.52 60.8738 112C60.8738 115.44 54.9538 120.56 51.0338 120.56C45.6738 120.56 44.9538 115.36 44.9538 111.28C44.9538 105.28 48.3138 96.32 50.0738 93.04C50.5538 92.16 51.1138 91.76 52.5538 91.28ZM70.6006 91.28C71.8006 91.28 71.9606 91.84 71.9606 93.04C71.8806 98.8 69.5606 100.48 68.2006 111.6V111.92C68.2006 112.64 68.6006 113.28 69.0806 113.28C70.2006 113.28 71.9606 112.32 74.4406 111.44C75.6406 110.96 77.2406 110.16 78.0406 110.16C78.8406 110.16 78.9206 111.52 78.9206 112C78.9206 115.44 73.0006 120.56 69.0806 120.56C63.7206 120.56 63.0006 115.36 63.0006 111.28C63.0006 105.28 66.3606 96.32 68.1206 93.04C68.6006 92.16 69.1606 91.76 70.6006 91.28ZM125.448 112.24C126.727 113.28 127.128 114.24 127.128 115.12C127.128 115.68 126.968 116.32 126.808 116.96C121.768 120 114.328 122.8 105.528 122.8C93.8475 122.8 80.8875 112.16 80.8875 95.2C80.8875 82.56 90.8875 62.56 111.608 62.56C122.728 62.56 128.808 68.72 128.808 77.92C128.808 85.6 122.888 88.88 116.568 88.88C111.608 88.88 107.928 85.28 107.928 81.12C107.928 77.28 112.088 73.92 115.848 73.92H116.168C113.528 76.32 112.168 77.92 112.168 80.72C112.168 82.16 113.208 84.64 116.248 84.64C119.448 84.64 124.248 83.28 124.248 77.6C124.248 69.84 118.648 67.84 111.768 67.84C98.7275 67.84 87.6075 82.16 87.6075 94.4C87.6075 107.84 98.0875 116 107.528 116C115.208 116 120.488 114.48 125.448 112.24ZM132.512 116.88C130.352 113.28 129.472 109.84 129.472 106.64C129.472 98.08 136.832 91.76 144.832 91.76C146.592 91.76 148.032 92 149.072 92.4C150.352 92.96 151.072 93.52 151.072 94C151.072 94.64 150.112 94.96 149.392 95.04H149.472C151.232 95.04 153.232 95.44 154.912 96.56C156.272 97.44 157.312 100.8 157.312 102.96C157.312 112.8 146.752 119.36 137.152 119.76C136.832 120.72 135.872 121.44 134.912 122.32C133.312 120.24 132.512 118.32 132.512 117.04V116.88ZM149.632 99.92C145.392 99.92 142.512 105.04 139.552 112.96H140.592C144.832 112.96 152.832 108.08 152.832 102.48C152.832 100.8 151.552 99.92 149.632 99.92ZM145.472 95.76C146.112 95.6 146.672 95.36 147.312 95.28C146.032 95.52 144.832 95.84 143.792 96.16C137.072 97.76 134.112 103.44 134.112 108.32C134.112 109.12 134.192 109.92 134.432 110.72C137.872 101.92 140.992 97.12 145.472 95.76ZM147.712 95.2C147.552 95.2 147.472 95.2 147.312 95.28C147.472 95.2 147.552 95.2 147.712 95.2ZM161.574 116.88C159.414 113.28 158.534 109.84 158.534 106.64C158.534 98.08 165.894 91.76 173.894 91.76C175.654 91.76 177.094 92 178.134 92.4C179.414 92.96 180.134 93.52 180.134 94C180.134 94.64 179.174 94.96 178.454 95.04H178.534C180.294 95.04 182.294 95.44 183.974 96.56C185.334 97.44 186.374 100.8 186.374 102.96C186.374 112.8 175.814 119.36 166.214 119.76C165.894 120.72 164.934 121.44 163.974 122.32C162.374 120.24 161.574 118.32 161.574 117.04V116.88ZM178.694 99.92C174.454 99.92 171.574 105.04 168.614 112.96H169.654C173.894 112.96 181.894 108.08 181.894 102.48C181.894 100.8 180.614 99.92 178.694 99.92ZM174.534 95.76C175.174 95.6 175.734 95.36 176.374 95.28C175.094 95.52 173.894 95.84 172.854 96.16C166.134 97.76 163.174 103.44 163.174 108.32C163.174 109.12 163.254 109.92 163.494 110.72C166.934 101.92 170.054 97.12 174.534 95.76ZM176.774 95.2C176.614 95.2 176.534 95.2 176.374 95.28C176.534 95.2 176.614 95.2 176.774 95.2ZM195.757 91.28C196.957 91.28 197.117 91.84 197.117 93.04C197.037 98.8 194.717 100.48 193.357 111.6V111.92C193.357 112.64 193.757 113.28 194.237 113.28C195.357 113.28 197.117 112.32 199.597 111.44C200.797 110.96 202.397 110.16 203.197 110.16C203.997 110.16 204.077 111.52 204.077 112C204.077 115.44 198.157 120.56 194.237 120.56C188.877 120.56 188.157 115.36 188.157 111.28C188.157 105.28 191.517 96.32 193.277 93.04C193.757 92.16 194.317 91.76 195.757 91.28Z" fill="url(#paint0_linear_155_271)"/>
<path d="M39.9963 122.64L40.1203 123.632L40.1802 123.625L40.2388 123.61L39.9963 122.64ZM33.7563 122.48L32.7861 122.723L32.915 123.238L33.4145 123.42L33.7563 122.48ZM24.9563 105.6L25.7563 105L25.3915 104.514L24.7919 104.614L24.9563 105.6ZM20.5563 106.24L20.485 107.237L20.576 107.244L20.6667 107.234L20.5563 106.24ZM10.1562 103.6L10.6291 102.719L9.15625 101.929V103.6H10.1562ZM10.1562 104.4L11.1562 104.41V104.4H10.1562ZM9.99625 121.12L10.9633 121.374L10.995 121.254L10.9962 121.13L9.99625 121.12ZM2.47625 120.48L3.42493 120.796L3.47379 120.65L3.47614 120.495L2.47625 120.48ZM3.03625 96.96L4.0316 97.0563L4.06699 96.6906L3.85716 96.3889L3.03625 96.96ZM4.15625 88.88L4.43625 89.84L5.01924 89.67L5.1372 89.0742L4.15625 88.88ZM40.7963 96.08L39.7963 96.0906L39.8155 97.9028L41.3384 96.9203L40.7963 96.08ZM44.1563 91.92V90.92H42.7688L43.2076 92.2362L44.1563 91.92ZM44.6363 97.6L45.2363 98.4L45.2363 98.4L44.6363 97.6ZM40.7963 100.24L40.306 99.3684L39.8124 99.6461L39.7966 100.212L40.7963 100.24ZM11.7563 89.04L10.7774 88.8353L10.5591 89.8791L11.6148 90.0299L11.7563 89.04ZM13.4363 89.36L13.8362 88.4435L13.7751 88.4168L13.711 88.3985L13.4363 89.36ZM27.9163 101.36L27.1525 102.005L27.5464 102.472L28.1411 102.334L27.9163 101.36ZM34.0763 99.52L34.4476 100.448L35.0532 100.206L35.0757 99.5545L34.0763 99.52ZM10.9563 93.6L11.2456 92.6428L10.131 92.3058L9.9663 93.4586L10.9563 93.6ZM10.3963 98.72L9.39728 98.6746L9.37259 99.2177L9.81501 99.5337L10.3963 98.72ZM22.0763 102.08V103.08H24.296L22.8252 101.417L22.0763 102.08ZM33.8363 103.44L34.8321 103.531L34.9738 101.972L33.4999 102.498L33.8363 103.44ZM30.3963 104.48L30.1386 103.514L28.6803 103.903L29.6069 105.094L30.3963 104.48ZM33.5963 109.04L32.7578 109.585L34.5963 112.413V109.04H33.5963ZM39.6363 107.84V120.4H41.6363V107.84H39.6363ZM39.6363 120.4C39.6363 120.608 39.5753 121.06 39.4673 121.483C39.4143 121.69 39.3617 121.843 39.3221 121.93C39.3012 121.975 39.3001 121.967 39.3272 121.932C39.3366 121.92 39.4701 121.741 39.7537 121.67L40.2388 123.61C40.6025 123.519 40.8159 123.275 40.9041 123.162C41.01 123.026 41.0863 122.881 41.1404 122.763C41.2508 122.522 41.3382 122.24 41.4052 121.977C41.5372 121.46 41.6363 120.832 41.6363 120.4H39.6363ZM39.8722 121.648C38.5441 121.814 37.5953 121.96 36.7163 121.96V123.96C37.7572 123.96 38.8884 123.786 40.1203 123.632L39.8722 121.648ZM36.7163 121.96C35.6952 121.96 34.8531 121.815 34.098 121.54L33.4145 123.42C34.4194 123.785 35.4973 123.96 36.7163 123.96V121.96ZM34.7264 122.237C33.482 117.26 29.6397 110.178 25.7563 105L24.1563 106.2C27.9528 111.262 31.6305 118.1 32.7861 122.723L34.7264 122.237ZM24.7919 104.614C23.3548 104.853 21.8572 105.089 20.4458 105.246L20.6667 107.234C22.1353 107.071 23.6777 106.827 25.1206 106.586L24.7919 104.614ZM20.6275 105.243C17.3249 105.007 13.728 104.382 10.6291 102.719L9.68343 104.481C13.1445 106.338 17.0676 106.993 20.485 107.237L20.6275 105.243ZM9.15625 103.6V104.4H11.1562V103.6H9.15625ZM9.1563 104.39L8.9963 121.11L10.9962 121.13L11.1562 104.41L9.1563 104.39ZM9.02918 120.866C8.92797 121.25 8.72978 121.424 8.38074 121.544C7.9512 121.692 7.37349 121.72 6.63625 121.72V123.72C7.33901 123.72 8.2413 123.708 9.03176 123.436C9.90273 123.136 10.6645 122.51 10.9633 121.374L9.02918 120.866ZM6.63625 121.72H3.67625V123.72H6.63625V121.72ZM3.67625 121.72C3.66775 121.72 3.66518 121.72 3.65524 121.714C3.63988 121.704 3.60408 121.677 3.56029 121.613C3.46602 121.476 3.39625 121.258 3.39625 121.04H1.39625C1.39625 121.622 1.56648 122.244 1.91221 122.747C2.26609 123.261 2.86378 123.72 3.67625 123.72V121.72ZM3.39625 121.04C3.39625 120.956 3.39707 120.928 3.40013 120.9C3.40237 120.88 3.40726 120.849 3.42493 120.796L1.52757 120.164C1.39545 120.56 1.39625 120.851 1.39625 121.04H3.39625ZM3.47614 120.495C3.5558 115.237 3.71625 110.009 3.71625 104.72H1.71625C1.71625 109.991 1.5567 115.163 1.47636 120.465L3.47614 120.495ZM3.71625 104.72C3.71625 102.098 3.79583 99.4926 4.0316 97.0563L2.0409 96.8637C1.79667 99.3874 1.71625 102.062 1.71625 104.72H3.71625ZM3.85716 96.3889C2.63402 94.6307 2.19625 93.3116 2.19625 92.32H0.19625C0.19625 93.8884 0.878479 95.6093 2.21534 97.5311L3.85716 96.3889ZM2.19625 92.32C2.19625 91.7007 2.38216 91.2175 2.71366 90.8329C3.0559 90.4359 3.60898 90.0813 4.43625 89.84L3.87625 87.92C2.78352 88.2387 1.8566 88.7641 1.19884 89.5271C0.530344 90.3025 0.19625 91.2593 0.19625 92.32H2.19625ZM5.1372 89.0742C6.71723 81.0951 9.46868 74.5381 13.0512 69.9996C16.6237 65.4737 20.9777 63 25.8363 63V61C20.2148 61 15.3288 63.8863 11.4813 68.7604C7.64382 73.6219 4.79527 80.5049 3.1753 88.6857L5.1372 89.0742ZM25.8363 63C28.7782 63 31.0605 64.0702 32.8744 65.9023C34.7146 67.761 36.104 70.4389 37.1333 73.6733C39.1945 80.1499 39.7164 88.5398 39.7963 96.0906L41.7962 96.0694C41.7161 88.5002 41.198 79.8501 39.0392 73.0667C37.9585 69.671 36.4429 66.664 34.2956 64.4952C32.122 62.2998 29.3343 61 25.8363 61V63ZM41.3384 96.9203C42.5683 96.1268 43.5133 95.4756 44.1468 94.8536C44.8145 94.198 45.2362 93.4767 45.2362 92.56H43.2362C43.2362 92.7633 43.178 93.002 42.7457 93.4264C42.2792 93.8844 41.5042 94.4332 40.2541 95.2397L41.3384 96.9203ZM45.2362 92.56C45.2362 92.3107 45.2401 92.0093 45.1049 91.6038L43.2076 92.2362C43.2243 92.2864 43.2286 92.3137 43.2312 92.3395C43.2354 92.3809 43.2362 92.4294 43.2362 92.56H45.2362ZM44.1563 92.92C44.9091 92.92 45.2754 93.1149 45.4465 93.2734C45.6108 93.4257 45.7163 93.6563 45.7163 94H47.7163C47.7163 93.2237 47.4617 92.4143 46.806 91.8066C46.1571 91.2051 45.2434 90.92 44.1563 90.92V92.92ZM45.7163 94C45.7163 94.8071 45.1343 95.9765 44.0363 96.8L45.2363 98.4C46.6982 97.3035 47.7163 95.5929 47.7163 94H45.7163ZM44.0363 96.8C42.7441 97.7691 41.5181 98.6866 40.306 99.3684L41.2865 101.112C42.6344 100.353 43.9684 99.3509 45.2363 98.4L44.0363 96.8ZM39.7966 100.212C39.7169 103.084 39.6363 105.662 39.6363 107.84H41.6363C41.6363 105.698 41.7156 103.156 41.7959 100.268L39.7966 100.212ZM25.2763 66.76C21.8888 66.76 18.8885 69.4251 16.4964 73.283C14.0662 77.2023 12.0728 82.642 10.7774 88.8353L12.7351 89.2447C13.9997 83.198 15.9263 77.9977 18.1961 74.337C20.504 70.6149 22.9837 68.76 25.2763 68.76V66.76ZM11.6148 90.0299C12.1848 90.1114 12.6777 90.1833 13.1615 90.3215L13.711 88.3985C13.0748 88.2167 12.4477 88.1286 11.8977 88.05L11.6148 90.0299ZM13.0363 90.2765C17.2375 92.1098 22.3998 96.3815 27.1525 102.005L28.68 100.715C23.8327 94.9785 18.435 90.4502 13.8362 88.4435L13.0363 90.2765ZM28.1411 102.334C30.2412 101.85 32.3782 101.276 34.4476 100.448L33.7049 98.5915C31.7743 99.3638 29.7513 99.9103 27.6914 100.386L28.1411 102.334ZM35.0757 99.5545C35.1545 97.2669 35.3163 94.5025 35.3163 91.68H33.3163C33.3163 94.4575 33.158 97.1331 33.0768 99.4855L35.0757 99.5545ZM35.3163 91.68C35.3163 86.0989 34.9375 80.0034 33.5773 75.2736C32.8975 72.9098 31.9503 70.8052 30.6144 69.2759C29.2521 67.7164 27.4844 66.76 25.2763 66.76V68.76C26.8281 68.76 28.0704 69.4036 29.1081 70.5916C30.1722 71.8098 31.015 73.6002 31.6552 75.8264C32.935 80.2765 33.3163 86.1411 33.3163 91.68H35.3163ZM9.9663 93.4586C9.72725 95.1319 9.47982 96.8588 9.39728 98.6746L11.3952 98.7654C11.4727 97.0612 11.7052 95.4281 11.9462 93.7414L9.9663 93.4586ZM9.81501 99.5337C13.3899 102.087 17.6914 103.08 22.0763 103.08V101.08C17.9811 101.08 14.1226 100.153 10.9775 97.9063L9.81501 99.5337ZM22.8252 101.417C19.1192 97.2279 14.9644 93.7671 11.2456 92.6428L10.6669 94.5572C13.8281 95.5129 17.6734 98.6121 21.3273 102.743L22.8252 101.417ZM34.5963 107.12C34.5963 106.61 34.6723 105.289 34.8321 103.531L32.8404 103.349C32.6802 105.111 32.5963 106.51 32.5963 107.12H34.5963ZM33.4999 102.498C32.4186 102.884 31.3297 103.196 30.1386 103.514L30.6539 105.446C31.8628 105.124 33.0139 104.796 34.1726 104.382L33.4999 102.498ZM29.6069 105.094C30.7025 106.503 31.7253 107.996 32.7578 109.585L34.4347 108.495C33.3872 106.884 32.33 105.337 31.1856 103.866L29.6069 105.094ZM34.5963 109.04V107.12H32.5963V109.04H34.5963ZM52.5538 91.28V90.28H52.3915L52.2375 90.3313L52.5538 91.28ZM53.9138 93.04L54.9138 93.0539V93.04H53.9138ZM50.1538 111.6L49.1611 111.479L49.1538 111.539V111.6H50.1538ZM56.3938 111.44L56.7282 112.382L56.7468 112.376L56.7651 112.368L56.3938 111.44ZM50.0738 93.04L49.1958 92.5611L49.1926 92.5672L50.0738 93.04ZM52.5538 92.28C52.7867 92.28 52.8856 92.3088 52.911 92.3186C52.9132 92.3195 52.8741 92.2989 52.8473 92.258C52.8342 92.238 52.8594 92.2648 52.8814 92.4095C52.9035 92.5541 52.9138 92.7531 52.9138 93.04H54.9138C54.9138 92.7269 54.904 92.4059 54.8586 92.108C54.8131 91.8101 54.7233 91.472 54.5202 91.162C54.0536 90.4497 53.2792 90.28 52.5538 90.28V92.28ZM52.9138 93.0261C52.876 95.7478 52.3191 97.4821 51.556 100.022C50.7864 102.584 49.8504 105.843 49.1611 111.479L51.1464 111.721C51.8171 106.237 52.7211 103.096 53.4715 100.598C54.2284 98.0779 54.8715 96.0922 54.9137 93.0539L52.9138 93.0261ZM49.1538 111.6V111.92H51.1538V111.6H49.1538ZM49.1538 111.92C49.1538 112.453 49.2993 112.984 49.5715 113.409C49.8304 113.814 50.3205 114.28 51.0338 114.28V112.28C51.1446 112.28 51.2219 112.319 51.2553 112.341C51.2842 112.361 51.2786 112.366 51.256 112.331C51.2082 112.256 51.1538 112.107 51.1538 111.92H49.1538ZM51.0338 114.28C51.8136 114.28 52.708 113.96 53.5697 113.621C54.5024 113.254 55.507 112.816 56.7282 112.382L56.0593 110.498C54.8005 110.944 53.6851 111.426 52.8378 111.759C51.9195 112.12 51.3739 112.28 51.0338 112.28V114.28ZM56.7651 112.368C57.0795 112.243 57.4172 112.097 57.7452 111.956C58.0783 111.813 58.4041 111.673 58.7151 111.548C59.0276 111.424 59.3067 111.322 59.544 111.252C59.7947 111.179 59.9366 111.16 59.9938 111.16V109.16C59.6509 109.16 59.2928 109.241 58.981 109.333C58.6558 109.428 58.3099 109.556 57.9724 109.692C57.6334 109.827 57.2842 109.977 56.9548 110.119C56.6203 110.263 56.308 110.397 56.0224 110.512L56.7651 112.368ZM59.9938 111.16C59.9468 111.16 59.8861 111.149 59.8255 111.119C59.7679 111.092 59.7344 111.059 59.7213 111.044C59.7056 111.027 59.7368 111.057 59.7759 111.187C59.8536 111.446 59.8738 111.79 59.8738 112H61.8738C61.8738 111.73 61.8539 111.154 61.6916 110.613C61.6107 110.343 61.4719 110.003 61.2162 109.716C60.9352 109.4 60.5201 109.16 59.9938 109.16V111.16ZM59.8738 112C59.8738 112.592 59.6099 113.367 59.045 114.25C58.4901 115.118 57.6958 116.01 56.7682 116.815C54.8691 118.463 52.6381 119.56 51.0338 119.56V121.56C53.3494 121.56 56.0384 120.097 58.0793 118.325C59.1217 117.42 60.0524 116.387 60.73 115.327C61.3976 114.283 61.8738 113.128 61.8738 112H59.8738ZM51.0338 119.56C49.8623 119.56 49.013 119.278 48.3798 118.853C47.7418 118.425 47.2555 117.806 46.8889 117.025C46.1387 115.427 45.9538 113.298 45.9538 111.28H43.9538C43.9538 113.342 44.1288 115.853 45.0786 117.875C45.562 118.904 46.2607 119.84 47.2652 120.514C48.2745 121.192 49.5252 121.56 51.0338 121.56V119.56ZM45.9538 111.28C45.9538 108.431 46.7584 104.806 47.8084 101.438C48.8556 98.0789 50.1132 95.0815 50.9549 93.5128L49.1926 92.5672C48.2743 94.2785 46.9719 97.4011 45.8991 100.842C44.8291 104.274 43.9538 108.129 43.9538 111.28H45.9538ZM50.9516 93.5189C51.1361 93.1806 51.3031 92.9885 51.533 92.8252C51.7905 92.6422 52.1777 92.4595 52.87 92.2287L52.2375 90.3313C51.4898 90.5805 50.877 90.8378 50.3745 91.1948C49.8444 91.5715 49.4914 92.0194 49.1959 92.5611L50.9516 93.5189ZM70.6006 91.28V90.28H70.4383L70.2844 90.3313L70.6006 91.28ZM71.9606 93.04L72.9606 93.0539V93.04H71.9606ZM68.2006 111.6L67.208 111.479L67.2006 111.539V111.6H68.2006ZM74.4406 111.44L74.775 112.382L74.7937 112.376L74.812 112.368L74.4406 111.44ZM68.1206 93.04L67.2427 92.5611L67.2395 92.5672L68.1206 93.04ZM70.6006 92.28C70.8336 92.28 70.9325 92.3088 70.9578 92.3186C70.9601 92.3195 70.9209 92.2989 70.8942 92.258C70.881 92.238 70.9062 92.2648 70.9283 92.4095C70.9504 92.5541 70.9606 92.7531 70.9606 93.04H72.9606C72.9606 92.7269 72.9509 92.4059 72.9054 92.108C72.86 91.8101 72.7702 91.472 72.5671 91.162C72.1004 90.4497 71.3261 90.28 70.6006 90.28V92.28ZM70.9607 93.0261C70.9229 95.7478 70.366 97.4821 69.6029 100.022C68.8332 102.584 67.8972 105.843 67.208 111.479L69.1932 111.721C69.864 106.237 70.768 103.096 71.5183 100.598C72.2753 98.0779 72.9183 96.0922 72.9605 93.0539L70.9607 93.0261ZM67.2006 111.6V111.92H69.2006V111.6H67.2006ZM67.2006 111.92C67.2006 112.453 67.3462 112.984 67.6184 113.409C67.8773 113.814 68.3674 114.28 69.0806 114.28V112.28C69.1915 112.28 69.2688 112.319 69.3021 112.341C69.3311 112.361 69.3255 112.366 69.3029 112.331C69.2551 112.256 69.2006 112.107 69.2006 111.92H67.2006ZM69.0806 114.28C69.8605 114.28 70.7548 113.96 71.6166 113.621C72.5493 113.254 73.5539 112.816 74.775 112.382L74.1062 110.498C72.8473 110.944 71.732 111.426 70.8846 111.759C69.9664 112.12 69.4207 112.28 69.0806 112.28V114.28ZM74.812 112.368C75.1264 112.243 75.4641 112.097 75.792 111.956C76.1252 111.813 76.4509 111.673 76.762 111.548C77.0745 111.424 77.3536 111.322 77.5908 111.252C77.8416 111.179 77.9834 111.16 78.0406 111.16V109.16C77.6978 109.16 77.3397 109.241 77.0279 109.333C76.7027 109.428 76.3568 109.556 76.0192 109.692C75.6803 109.827 75.3311 109.977 75.0017 110.119C74.6672 110.263 74.3549 110.397 74.0692 110.512L74.812 112.368ZM78.0406 111.16C77.9936 111.16 77.933 111.149 77.8724 111.119C77.8148 111.092 77.7813 111.059 77.7682 111.044C77.7525 111.027 77.7837 111.057 77.8228 111.187C77.9005 111.446 77.9206 111.79 77.9206 112H79.9206C79.9206 111.73 79.9008 111.154 79.7385 110.613C79.6576 110.343 79.5188 110.003 79.263 109.716C78.9821 109.4 78.567 109.16 78.0406 109.16V111.16ZM77.9206 112C77.9206 112.592 77.6568 113.367 77.0919 114.25C76.5369 115.118 75.7427 116.01 74.8151 116.815C72.9159 118.463 70.685 119.56 69.0806 119.56V121.56C71.3962 121.56 74.0853 120.097 76.1261 118.325C77.1686 117.42 78.0993 116.387 78.7769 115.327C79.4445 114.283 79.9206 113.128 79.9206 112H77.9206ZM69.0806 119.56C67.9091 119.56 67.0599 119.278 66.4267 118.853C65.7887 118.425 65.3024 117.806 64.9358 117.025C64.1856 115.427 64.0006 113.298 64.0006 111.28H62.0006C62.0006 113.342 62.1757 115.853 63.1255 117.875C63.6089 118.904 64.3076 119.84 65.3121 120.514C66.3214 121.192 67.5721 121.56 69.0806 121.56V119.56ZM64.0006 111.28C64.0006 108.431 64.8052 104.806 65.8553 101.438C66.9024 98.0789 68.16 95.0815 69.0018 93.5128L67.2395 92.5672C66.3212 94.2785 65.0188 97.4011 63.9459 100.842C62.876 104.274 62.0006 108.129 62.0006 111.28H64.0006ZM68.9985 93.5189C69.183 93.1806 69.35 92.9885 69.5798 92.8252C69.8373 92.6422 70.2245 92.4595 70.9169 92.2287L70.2844 90.3313C69.5367 90.5805 68.9239 90.8378 68.4214 91.1948C67.8913 91.5715 67.5382 92.0194 67.2427 92.5611L68.9985 93.5189ZM125.448 112.24L126.078 111.464L125.599 111.074L125.036 111.329L125.448 112.24ZM126.808 116.96L127.324 117.816L127.678 117.603L127.778 117.203L126.808 116.96ZM116.168 73.92L116.84 74.6599L118.754 72.92H116.168V73.92ZM124.817 113.016C125.926 113.917 126.128 114.614 126.128 115.12H128.128C128.128 113.866 127.529 112.643 126.078 111.464L124.817 113.016ZM126.128 115.12C126.128 115.532 126.006 116.042 125.837 116.717L127.778 117.203C127.929 116.598 128.128 115.828 128.128 115.12H126.128ZM126.291 116.104C121.381 119.065 114.118 121.8 105.528 121.8V123.8C114.537 123.8 122.154 120.935 127.324 117.816L126.291 116.104ZM105.528 121.8C94.4156 121.8 81.8875 111.624 81.8875 95.2H79.8875C79.8875 112.696 93.2794 123.8 105.528 123.8V121.8ZM81.8875 95.2C81.8875 89.1061 84.3111 81.1604 89.2685 74.7519C94.2045 68.371 101.611 63.56 111.608 63.56V61.56C100.884 61.56 92.9305 66.749 87.6865 73.5281C82.4639 80.2796 79.8875 88.6539 79.8875 95.2H81.8875ZM111.608 63.56C116.987 63.56 121.02 65.0481 123.699 67.5243C126.369 69.9927 127.808 73.5474 127.808 77.92H129.808C129.808 73.0926 128.206 68.9673 125.056 66.0557C121.915 63.1519 117.348 61.56 111.608 61.56V63.56ZM127.808 77.92C127.808 81.4717 126.454 83.914 124.44 85.4931C122.393 87.0987 119.571 87.88 116.568 87.88V89.88C119.884 89.88 123.182 89.0213 125.675 87.0669C128.201 85.086 129.808 82.0483 129.808 77.92H127.808ZM116.568 87.88C112.082 87.88 108.928 84.6529 108.928 81.12H106.928C106.928 85.9071 111.133 89.88 116.568 89.88V87.88ZM108.928 81.12C108.928 79.5669 109.776 78.0215 111.136 76.8329C112.495 75.6446 114.248 74.92 115.848 74.92V72.92C113.687 72.92 111.48 73.8754 109.819 75.3271C108.159 76.7785 106.928 78.8331 106.928 81.12H108.928ZM115.848 74.92H116.168V72.92H115.848V74.92ZM115.495 73.1801C114.173 74.3816 113.083 75.4591 112.335 76.6321C111.561 77.8444 111.168 79.1314 111.168 80.72H113.168C113.168 79.5086 113.454 78.5956 114.021 77.7079C114.612 76.7809 115.522 75.8584 116.84 74.6599L115.495 73.1801ZM111.168 80.72C111.168 81.6445 111.491 82.8505 112.287 83.8447C113.113 84.8771 114.418 85.64 116.248 85.64V83.64C115.037 83.64 114.302 83.1629 113.848 82.5953C113.364 81.9895 113.168 81.2355 113.168 80.72H111.168ZM116.248 85.64C117.96 85.64 120.176 85.2809 121.996 84.086C123.878 82.8512 125.248 80.7769 125.248 77.6H123.248C123.248 80.1031 122.217 81.5488 120.899 82.4139C119.52 83.3191 117.735 83.64 116.248 83.64V85.64ZM125.248 77.6C125.248 73.4408 123.723 70.6563 121.133 68.9717C118.626 67.3414 115.267 66.84 111.768 66.84V68.84C115.148 68.84 118.029 69.3386 120.042 70.6483C121.972 71.9037 123.248 73.9992 123.248 77.6H125.248ZM111.768 66.84C104.874 66.84 98.5787 70.6181 94.0404 75.8766C89.5031 81.1343 86.6075 87.9987 86.6075 94.4H88.6075C88.6075 88.5613 91.2719 82.1457 95.5546 77.1833C99.8363 72.2219 105.621 68.84 111.768 68.84V66.84ZM86.6075 94.4C86.6075 108.412 97.5554 117 107.528 117V115C98.6196 115 88.6075 107.268 88.6075 94.4H86.6075ZM107.528 117C115.365 117 120.785 115.443 125.859 113.151L125.036 111.329C120.19 113.517 115.05 115 107.528 115V117ZM132.512 116.88H133.512V116.603L133.369 116.366L132.512 116.88ZM149.072 92.4L149.473 91.4838L149.452 91.4748L149.431 91.4667L149.072 92.4ZM149.392 95.04L149.281 94.0461L149.392 96.04V95.04ZM154.912 96.56L154.357 97.3921L154.369 97.3996L154.912 96.56ZM137.152 119.76L137.11 118.761L136.421 118.79L136.203 119.444L137.152 119.76ZM134.912 122.32L134.119 122.93L134.784 123.794L135.588 123.057L134.912 122.32ZM139.552 112.96L138.615 112.61L138.111 113.96H139.552V112.96ZM145.472 95.76L145.229 94.7899L145.205 94.7959L145.181 94.8031L145.472 95.76ZM147.312 95.28L147.496 96.2629L147.188 94.2877L147.312 95.28ZM143.792 96.16L144.023 97.1328L144.055 97.1253L144.086 97.1158L143.792 96.16ZM134.432 110.72L133.474 111.007L134.307 113.785L135.363 111.084L134.432 110.72ZM133.369 116.366C131.296 112.91 130.472 109.647 130.472 106.64H128.472C128.472 110.033 129.408 113.65 131.654 117.394L133.369 116.366ZM130.472 106.64C130.472 98.6964 137.318 92.76 144.832 92.76V90.76C136.346 90.76 128.472 97.4636 128.472 106.64H130.472ZM144.832 92.76C146.513 92.76 147.822 92.9908 148.713 93.3333L149.431 91.4667C148.242 91.0092 146.671 90.76 144.832 90.76V92.76ZM148.671 93.3162C149.274 93.5801 149.686 93.8195 149.93 94.0131C150.051 94.1093 150.1 94.1701 150.112 94.1883C150.124 94.205 150.072 94.1368 150.072 94H152.072C152.072 93.2711 151.557 92.7511 151.174 92.4469C150.738 92.1005 150.149 91.7799 149.473 91.4838L148.671 93.3162ZM150.072 94C150.072 93.888 150.12 93.8076 150.143 93.7803C150.155 93.7661 150.135 93.7939 150.044 93.841C149.857 93.9373 149.566 94.0145 149.281 94.0461L149.502 96.0339C149.938 95.9855 150.487 95.8627 150.96 95.619C151.393 95.396 152.072 94.897 152.072 94H150.072ZM149.392 96.04H149.472V94.04H149.392V96.04ZM149.472 96.04C151.096 96.04 152.886 96.4114 154.357 97.392L155.467 95.7279C153.578 94.4686 151.368 94.04 149.472 94.04V96.04ZM154.369 97.3996C154.531 97.5044 154.756 97.7381 155.007 98.1489C155.251 98.5469 155.48 99.0497 155.679 99.6124C156.079 100.747 156.312 102.014 156.312 102.96H158.312C158.312 101.746 158.025 100.253 157.565 98.9476C157.333 98.2903 157.048 97.6531 156.714 97.106C156.387 96.5719 155.973 96.0556 155.455 95.7204L154.369 97.3996ZM156.312 102.96C156.312 107.488 153.889 111.319 150.227 114.104C146.557 116.894 141.716 118.569 137.11 118.761L137.194 120.759C142.188 120.551 147.427 118.746 151.437 115.696C155.455 112.641 158.312 108.272 158.312 102.96H156.312ZM136.203 119.444C136.113 119.714 135.914 120.005 135.556 120.372C135.18 120.757 134.767 121.096 134.236 121.583L135.588 123.057C136.017 122.664 136.564 122.203 136.988 121.768C137.43 121.315 137.871 120.766 138.101 120.076L136.203 119.444ZM135.704 121.71C134.151 119.691 133.512 117.989 133.512 117.04H131.512C131.512 118.651 132.473 120.789 134.119 122.93L135.704 121.71ZM133.512 117.04V116.88H131.512V117.04H133.512ZM149.632 98.92C147.043 98.92 145.001 100.503 143.298 102.889C141.597 105.273 140.099 108.639 138.615 112.61L140.489 113.31C141.964 109.361 143.387 106.207 144.926 104.051C146.463 101.897 147.981 100.92 149.632 100.92V98.92ZM139.552 113.96H140.592V111.96H139.552V113.96ZM140.592 113.96C143.007 113.96 146.276 112.613 148.906 110.617C151.527 108.628 153.832 105.749 153.832 102.48H151.832C151.832 104.811 150.137 107.172 147.697 109.023C145.268 110.867 142.417 111.96 140.592 111.96V113.96ZM153.832 102.48C153.832 101.357 153.388 100.412 152.561 99.7768C151.769 99.169 150.728 98.92 149.632 98.92V100.92C150.456 100.92 151.014 101.111 151.343 101.363C151.635 101.588 151.832 101.923 151.832 102.48H153.832ZM145.714 96.7301C146.064 96.6427 146.417 96.5265 146.679 96.4478C146.963 96.3626 147.2 96.3018 147.436 96.2723L147.188 94.2877C146.784 94.3382 146.42 94.4374 146.105 94.5322C145.767 94.6335 145.52 94.7173 145.229 94.7899L145.714 96.7301ZM147.128 94.2971C145.802 94.5457 144.564 94.8761 143.498 95.2042L144.086 97.1158C145.099 96.8039 146.262 96.4943 147.496 96.2629L147.128 94.2971ZM143.56 95.1872C136.307 96.9143 133.112 103.068 133.112 108.32H135.112C135.112 103.812 137.837 98.6057 144.023 97.1328L143.56 95.1872ZM133.112 108.32C133.112 109.186 133.198 110.089 133.474 111.007L135.39 110.433C135.185 109.751 135.112 109.054 135.112 108.32H133.112ZM135.363 111.084C137.074 106.708 138.678 103.4 140.375 101.032C142.062 98.678 143.797 97.3135 145.762 96.7169L145.181 94.8031C142.667 95.5665 140.602 97.282 138.749 99.8675C136.906 102.44 135.23 105.932 133.501 110.356L135.363 111.084ZM147.712 94.2C147.652 94.2 147.505 94.1974 147.347 94.2236C147.166 94.2539 147.01 94.3131 146.865 94.3856L147.759 96.1744C147.77 96.1691 147.764 96.1727 147.746 96.1787C147.738 96.1818 147.726 96.1852 147.714 96.1885C147.701 96.1918 147.688 96.1944 147.676 96.1964C147.652 96.2004 147.638 96.2007 147.643 96.2005C147.646 96.2004 147.652 96.2002 147.664 96.2001C147.677 96.2 147.691 96.2 147.712 96.2V94.2ZM147.759 96.1744C147.77 96.1691 147.764 96.1727 147.746 96.1787C147.738 96.1818 147.726 96.1852 147.714 96.1885C147.701 96.1918 147.688 96.1944 147.676 96.1964C147.652 96.2004 147.638 96.2007 147.643 96.2005C147.646 96.2004 147.652 96.2002 147.664 96.2001C147.677 96.2 147.691 96.2 147.712 96.2V94.2C147.652 94.2 147.505 94.1974 147.347 94.2236C147.166 94.2539 147.01 94.3131 146.865 94.3856L147.759 96.1744ZM161.574 116.88H162.574V116.603L162.432 116.366L161.574 116.88ZM178.134 92.4L178.535 91.4838L178.514 91.4748L178.493 91.4667L178.134 92.4ZM178.454 95.04L178.344 94.0461L178.454 96.04V95.04ZM183.974 96.56L183.42 97.3921L183.431 97.3996L183.974 96.56ZM166.214 119.76L166.173 118.761L165.484 118.79L165.266 119.444L166.214 119.76ZM163.974 122.32L163.182 122.93L163.846 123.794L164.65 123.057L163.974 122.32ZM168.614 112.96L167.678 112.61L167.173 113.96H168.614V112.96ZM174.534 95.76L174.292 94.7899L174.268 94.7959L174.244 94.8031L174.534 95.76ZM176.374 95.28L176.559 96.2629L176.25 94.2877L176.374 95.28ZM172.854 96.16L173.086 97.1328L173.118 97.1253L173.148 97.1158L172.854 96.16ZM163.494 110.72L162.537 111.007L163.37 113.785L164.426 111.084L163.494 110.72ZM162.432 116.366C160.359 112.91 159.534 109.647 159.534 106.64H157.534C157.534 110.033 158.47 113.65 160.717 117.394L162.432 116.366ZM159.534 106.64C159.534 98.6964 166.38 92.76 173.894 92.76V90.76C165.408 90.76 157.534 97.4636 157.534 106.64H159.534ZM173.894 92.76C175.575 92.76 176.885 92.9908 177.775 93.3333L178.493 91.4667C177.304 91.0092 175.733 90.76 173.894 90.76V92.76ZM177.734 93.3162C178.337 93.5801 178.749 93.8195 178.992 94.0131C179.114 94.1093 179.162 94.1701 179.175 94.1883C179.186 94.205 179.134 94.1368 179.134 94H181.134C181.134 93.2711 180.619 92.7511 180.236 92.4469C179.8 92.1005 179.212 91.7799 178.535 91.4838L177.734 93.3162ZM179.134 94C179.134 93.888 179.183 93.8076 179.206 93.7803C179.217 93.7661 179.198 93.7939 179.106 93.841C178.919 93.9373 178.629 94.0145 178.344 94.0461L178.565 96.0339C179 95.9855 179.549 95.8627 180.022 95.619C180.455 95.396 181.134 94.897 181.134 94H179.134ZM178.454 96.04H178.534V94.04H178.454V96.04ZM178.534 96.04C180.159 96.04 181.949 96.4114 183.42 97.392L184.529 95.7279C182.64 94.4686 180.43 94.04 178.534 94.04V96.04ZM183.431 97.3996C183.593 97.5044 183.819 97.7381 184.07 98.1489C184.313 98.5469 184.543 99.0497 184.741 99.6124C185.141 100.747 185.374 102.014 185.374 102.96H187.374C187.374 101.746 187.088 100.253 186.628 98.9476C186.396 98.2903 186.111 97.6531 185.776 97.106C185.45 96.5719 185.036 96.0556 184.518 95.7204L183.431 97.3996ZM185.374 102.96C185.374 107.488 182.951 111.319 179.289 114.104C175.619 116.894 170.778 118.569 166.173 118.761L166.256 120.759C171.25 120.551 176.489 118.746 180.5 115.696C184.517 112.641 187.374 108.272 187.374 102.96H185.374ZM165.266 119.444C165.176 119.714 164.977 120.005 164.619 120.372C164.243 120.757 163.83 121.096 163.299 121.583L164.65 123.057C165.079 122.664 165.626 122.203 166.05 121.768C166.492 121.315 166.933 120.766 167.163 120.076L165.266 119.444ZM164.767 121.71C163.214 119.691 162.574 117.989 162.574 117.04H160.574C160.574 118.651 161.535 120.789 163.182 122.93L164.767 121.71ZM162.574 117.04V116.88H160.574V117.04H162.574ZM178.694 98.92C176.105 98.92 174.063 100.503 172.36 102.889C170.659 105.273 169.162 108.639 167.678 112.61L169.551 113.31C171.027 109.361 172.45 106.207 173.988 104.051C175.526 101.897 177.043 100.92 178.694 100.92V98.92ZM168.614 113.96H169.654V111.96H168.614V113.96ZM169.654 113.96C172.07 113.96 175.338 112.613 177.969 110.617C180.59 108.628 182.894 105.749 182.894 102.48H180.894C180.894 104.811 179.199 107.172 176.76 109.023C174.33 110.867 171.479 111.96 169.654 111.96V113.96ZM182.894 102.48C182.894 101.357 182.451 100.412 181.623 99.7768C180.832 99.169 179.79 98.92 178.694 98.92V100.92C179.519 100.92 180.077 101.111 180.405 101.363C180.698 101.588 180.894 101.923 180.894 102.48H182.894ZM174.777 96.7301C175.127 96.6427 175.479 96.5265 175.742 96.4478C176.026 96.3626 176.262 96.3018 176.498 96.2723L176.25 94.2877C175.846 94.3382 175.483 94.4374 175.167 94.5322C174.829 94.6335 174.582 94.7173 174.292 94.7899L174.777 96.7301ZM176.19 94.2971C174.864 94.5457 173.627 94.8761 172.56 95.2042L173.148 97.1158C174.162 96.8039 175.324 96.4943 176.559 96.2629L176.19 94.2971ZM172.623 95.1872C165.369 96.9143 162.174 103.068 162.174 108.32H164.174C164.174 103.812 166.9 98.6057 173.086 97.1328L172.623 95.1872ZM162.174 108.32C162.174 109.186 162.261 110.089 162.537 111.007L164.452 110.433C164.248 109.751 164.174 109.054 164.174 108.32H162.174ZM164.426 111.084C166.136 106.708 167.741 103.4 169.437 101.032C171.124 98.678 172.859 97.3135 174.825 96.7169L174.244 94.8031C171.729 95.5665 169.664 97.282 167.812 99.8675C165.968 102.44 164.292 105.932 162.563 110.356L164.426 111.084ZM176.774 94.2C176.714 94.2 176.567 94.1974 176.41 94.2236C176.228 94.2539 176.072 94.3131 175.927 94.3856L176.822 96.1744C176.832 96.1691 176.827 96.1727 176.809 96.1787C176.8 96.1818 176.789 96.1852 176.776 96.1885C176.763 96.1918 176.751 96.1944 176.739 96.1964C176.715 96.2004 176.7 96.2007 176.705 96.2005C176.708 96.2004 176.714 96.2002 176.727 96.2001C176.739 96.2 176.753 96.2 176.774 96.2V94.2ZM176.822 96.1744C176.832 96.1691 176.827 96.1727 176.809 96.1787C176.8 96.1818 176.789 96.1852 176.776 96.1885C176.763 96.1918 176.751 96.1944 176.739 96.1964C176.715 96.2004 176.7 96.2007 176.705 96.2005C176.708 96.2004 176.714 96.2002 176.727 96.2001C176.739 96.2 176.753 96.2 176.774 96.2V94.2C176.714 94.2 176.567 94.1974 176.41 94.2236C176.228 94.2539 176.072 94.3131 175.927 94.3856L176.822 96.1744ZM195.757 91.28V90.28H195.595L195.441 90.3313L195.757 91.28ZM197.117 93.04L198.117 93.0539V93.04H197.117ZM193.357 111.6L192.364 111.479L192.357 111.539V111.6H193.357ZM199.597 111.44L199.931 112.382L199.95 112.376L199.968 112.368L199.597 111.44ZM193.277 93.04L192.399 92.5611L192.396 92.5672L193.277 93.04ZM195.757 92.28C195.99 92.28 196.089 92.3088 196.114 92.3186C196.116 92.3195 196.077 92.2989 196.05 92.258C196.037 92.238 196.062 92.2648 196.085 92.4095C196.107 92.5541 196.117 92.7531 196.117 93.04H198.117C198.117 92.7269 198.107 92.4059 198.062 92.108C198.016 91.8101 197.926 91.472 197.723 91.162C197.257 90.4497 196.482 90.28 195.757 90.28V92.28ZM196.117 93.0261C196.079 95.7478 195.522 97.4821 194.759 100.022C193.989 102.584 193.053 105.843 192.364 111.479L194.349 111.721C195.02 106.237 195.924 103.096 196.675 100.598C197.432 98.0779 198.075 96.0922 198.117 93.0539L196.117 93.0261ZM192.357 111.6V111.92H194.357V111.6H192.357ZM192.357 111.92C192.357 112.453 192.502 112.984 192.775 113.409C193.034 113.814 193.524 114.28 194.237 114.28V112.28C194.348 112.28 194.425 112.319 194.458 112.341C194.487 112.361 194.482 112.366 194.459 112.331C194.411 112.256 194.357 112.107 194.357 111.92H192.357ZM194.237 114.28C195.017 114.28 195.911 113.96 196.773 113.621C197.706 113.254 198.71 112.816 199.931 112.382L199.262 110.498C198.004 110.944 196.888 111.426 196.041 111.759C195.123 112.12 194.577 112.28 194.237 112.28V114.28ZM199.968 112.368C200.283 112.243 200.62 112.097 200.948 111.956C201.281 111.813 201.607 111.673 201.918 111.548C202.231 111.424 202.51 111.322 202.747 111.252C202.998 111.179 203.14 111.16 203.197 111.16V109.16C202.854 109.16 202.496 109.241 202.184 109.333C201.859 109.428 201.513 109.556 201.175 109.692C200.837 109.827 200.487 109.977 200.158 110.119C199.823 110.263 199.511 110.397 199.225 110.512L199.968 112.368ZM203.197 111.16C203.15 111.16 203.089 111.149 203.029 111.119C202.971 111.092 202.938 111.059 202.924 111.044C202.909 111.027 202.94 111.057 202.979 111.187C203.057 111.446 203.077 111.79 203.077 112H205.077C205.077 111.73 205.057 111.154 204.895 110.613C204.814 110.343 204.675 110.003 204.419 109.716C204.138 109.4 203.723 109.16 203.197 109.16V111.16ZM203.077 112C203.077 112.592 202.813 113.367 202.248 114.25C201.693 115.118 200.899 116.01 199.971 116.815C198.072 118.463 195.841 119.56 194.237 119.56V121.56C196.552 121.56 199.242 120.097 201.282 118.325C202.325 117.42 203.256 116.387 203.933 115.327C204.601 114.283 205.077 113.128 205.077 112H203.077ZM194.237 119.56C193.065 119.56 192.216 119.278 191.583 118.853C190.945 118.425 190.459 117.806 190.092 117.025C189.342 115.427 189.157 113.298 189.157 111.28H187.157C187.157 113.342 187.332 115.853 188.282 117.875C188.765 118.904 189.464 119.84 190.468 120.514C191.478 121.192 192.728 121.56 194.237 121.56V119.56ZM189.157 111.28C189.157 108.431 189.961 104.806 191.012 101.438C192.059 98.0789 193.316 95.0815 194.158 93.5128L192.396 92.5672C191.477 94.2785 190.175 97.4011 189.102 100.842C188.032 104.274 187.157 108.129 187.157 111.28H189.157ZM194.155 93.5189C194.339 93.1806 194.506 92.9885 194.736 92.8252C194.994 92.6422 195.381 92.4595 196.073 92.2287L195.441 90.3313C194.693 90.5805 194.08 90.8378 193.578 91.1948C193.048 91.5715 192.694 92.0194 192.399 92.5611L194.155 93.5189Z" fill="url(#paint1_linear_155_271)"/>
<path d="M116.257 14.1777L109 26.9722C110.726 25.7387 111.71 25.0592 115.022 24.9305C116.81 22.5544 118.153 21.7559 121.314 21.5277C122.914 19.5522 124.101 18.8686 126.912 18.6694C128.48 16.9214 129.858 16.1246 133.243 15.1305L116.257 14.1777Z" fill="#7DD3FC"/>
<path d="M125.059 26.9722L121.314 21.5277M116.257 14.1777L109 26.9722C110.726 25.7387 111.71 25.0592 115.022 24.9305C116.81 22.5544 118.153 21.7559 121.314 21.5277M116.257 14.1777L121.314 21.5277M116.257 14.1777L133.243 15.1305C129.858 16.1246 128.48 16.9214 126.912 18.6694C124.101 18.8686 122.914 19.5522 121.314 21.5277" stroke="#0284C7" stroke-width="2"/>
<path d="M115.022 24.9305L116.412 14.45L126.912 18.6694" stroke="#0284C7"/>
<path d="M133.706 30.7833L140.191 14.3139L147.603 12" stroke="#0284C7" stroke-width="2"/>
<path d="M110.784 36.5234C115.68 35.4843 117.829 35.8853 121.051 37.6113C128.416 35.4173 132.535 35.4522 139.898 37.6113C144.968 35.9635 147.412 35.6806 150.931 36.5234C151.39 48.723 149.76 54.5176 139.898 61C132.538 59.7983 128.411 60.2219 121.051 61C110.952 52.2805 109.923 46.7535 110.784 36.5234Z" fill="#16A34A" stroke="#86EFAC" stroke-width="2"/>
<path d="M111.471 36.2671C116.215 35.2645 118.299 35.6514 121.421 37.3166C128.559 35.1999 132.552 35.2336 139.689 37.3166C144.603 35.7268 146.971 35.4539 150.382 36.2671L139.689 26.4277H121.421L111.471 36.2671Z" fill="#FEF9C3" stroke="#FEFCE8" stroke-width="2"/>
<path d="M41.2041 5.36C44.3241 2.24 49.1241 0.559996 54.4841 0.559996C68.0841 0.559996 88.3241 10.56 88.3241 24.64C88.3241 33.84 75.4441 40.88 62.8841 40.88C62.0041 40.88 61.2841 40.88 58.9641 40.56C58.8841 41.84 58.8841 43.44 58.8841 45.28C58.8841 48.24 58.9641 51.92 59.2041 56.56C59.1241 58.56 57.2841 60.48 55.3641 61.04C54.4041 61.04 54.3241 60.64 53.5241 59.44C53.2841 58.32 53.0441 57.28 52.8841 56.08C52.8041 55.12 52.7241 53.68 52.7241 51.92L52.8841 41.04V39.28C48.6441 38 41.9241 33.92 41.9241 29.44C41.9241 25.92 44.5641 22.8 49.9241 21.28C50.3241 21.2 52.1641 20.64 52.5641 20.64C52.6441 18.48 52.6441 16.48 52.8041 14.88C52.9641 12.88 53.2841 10.96 55.3641 8.88C56.5641 9.68 57.7641 12.8 57.8441 14.08L58.4041 20.72C65.5241 20.72 67.3641 23.28 67.3641 25.76C67.3641 27.36 66.6441 28.4 64.9641 28.56C65.1241 28.16 65.2041 27.76 65.2041 27.44C65.2041 25.76 63.6041 25.2 58.5641 25.2L58.7241 35.04C60.0841 35.28 61.1241 35.36 62.5641 35.36C68.1641 35.36 81.6841 32.64 81.6841 25.04C81.6841 11.28 58.8841 5.84 51.5241 5.84C48.4841 5.84 44.5641 6 41.3641 6.24L41.2041 5.36ZM52.6441 25.2C51.6041 25.2 49.7641 25.28 48.8841 25.44C46.8841 25.84 45.0441 26.72 45.0441 28.4C45.0441 31.28 49.9241 32.72 52.6441 33.44V25.2ZM86.2122 35.12C85.0922 34.56 84.6122 33.92 84.6122 33.36C84.6122 31.44 89.6522 29.52 91.8122 29.52C101.412 29.52 107.012 33.76 107.012 41.52C107.012 44.16 105.572 46.4 103.492 48C105.572 50.32 107.012 53.36 108.692 56.24C108.932 56.64 109.012 57.2 109.012 57.6C109.012 59.2 107.652 60.4 106.612 60.4C106.292 60.4 106.052 60.32 105.812 60.08C105.572 59.76 101.732 54.32 98.6922 50.48C97.1722 50.88 95.6522 51.12 94.2122 51.12C91.6522 51.12 89.8922 49.36 89.8922 47.04C89.8922 45.52 92.3722 44.08 94.3722 44.08C96.3722 44.08 98.0522 44.48 99.4922 45.12C100.532 43.84 101.252 42.4 101.252 41.28C101.252 35.12 94.2922 34.08 90.5322 34.08C88.9322 34.08 87.4922 35.04 86.2122 35.12ZM88.4522 56.32C88.2922 57.6 87.4122 58.24 86.3722 58.24C84.6122 58.24 82.5322 56.72 82.5322 54.4C82.6122 47.52 83.3322 43.6 85.4922 36.96C85.8122 35.76 87.4122 35.2 88.7722 35.2C89.8922 35.2 90.8522 35.6 90.8522 36.56C89.2522 43.28 88.9322 49.76 88.4522 56.32ZM94.1322 48.8C94.8522 48.8 95.4922 48.64 96.5322 47.92C95.5722 46.96 95.3322 46.8 94.2922 46.8C93.3322 46.88 92.7722 47.2 92.7722 47.68C92.7722 48.48 93.5722 48.8 94.1322 48.8Z" fill="url(#paint2_linear_155_271)"/>
<path d="M41.2041 5.36L40.497 4.65289L40.1265 5.02338L40.2202 5.53888L41.2041 5.36ZM58.9641 40.56L59.1007 39.5694L58.0332 39.4221L57.966 40.4976L58.9641 40.56ZM59.2041 56.56L60.2033 56.6L60.2051 56.5541L60.2027 56.5083L59.2041 56.56ZM55.3641 61.04V62.04H55.5069L55.6441 62L55.3641 61.04ZM53.5241 59.44L52.5463 59.6495L52.5862 59.836L52.692 59.9947L53.5241 59.44ZM52.8841 56.08L51.8875 56.163L51.8896 56.1877L51.8928 56.2122L52.8841 56.08ZM52.7241 51.92L51.7242 51.9053L51.7241 51.9126V51.92H52.7241ZM52.8841 41.04L53.884 41.0547L53.8841 41.0474V41.04H52.8841ZM52.8841 39.28H53.8841V38.5373L53.1731 38.3227L52.8841 39.28ZM49.9241 21.28L49.7279 20.2994L49.6892 20.3072L49.6512 20.3179L49.9241 21.28ZM52.5641 20.64V21.64H53.5277L53.5634 20.677L52.5641 20.64ZM52.8041 14.88L53.7991 14.9795L53.8001 14.9696L53.8009 14.9597L52.8041 14.88ZM55.3641 8.88L55.9188 8.04795L55.2366 7.5932L54.657 8.17289L55.3641 8.88ZM57.8441 14.08L56.846 14.1424L56.8467 14.1532L56.8476 14.164L57.8441 14.08ZM58.4041 20.72L57.4076 20.804L57.4849 21.72H58.4041V20.72ZM64.9641 28.56L64.0356 28.1886L63.4267 29.7109L65.0589 29.5555L64.9641 28.56ZM58.5641 25.2V24.2H57.5477L57.5642 25.2163L58.5641 25.2ZM58.7241 35.04L57.7242 35.0563L57.7376 35.8814L58.5503 36.0248L58.7241 35.04ZM41.3641 6.24L40.3802 6.41888L40.5412 7.30452L41.4389 7.2372L41.3641 6.24ZM52.6441 25.2H53.6441V24.2H52.6441V25.2ZM48.8841 25.44L48.7052 24.4561L48.6965 24.4577L48.6879 24.4594L48.8841 25.44ZM52.6441 33.44L52.3882 34.4067L53.6441 34.7391V33.44H52.6441ZM41.9112 6.0671C44.797 3.18127 49.3151 1.56 54.4841 1.56V-0.440004C48.933 -0.440004 43.8511 1.29873 40.497 4.65289L41.9112 6.0671ZM54.4841 1.56C61.0767 1.56 69.354 3.99617 75.9709 8.16602C82.6143 12.3525 87.3241 18.1082 87.3241 24.64H89.3241C89.3241 17.0918 83.9138 10.8074 77.0372 6.47397C70.1342 2.12382 61.4914 -0.440004 54.4841 -0.440004V1.56ZM87.3241 24.64C87.3241 28.7385 84.4448 32.5304 79.7949 35.3554C75.1718 38.1639 68.9936 39.88 62.8841 39.88V41.88C69.3345 41.88 75.8763 40.0761 80.8333 37.0646C85.7633 34.0696 89.3241 29.7415 89.3241 24.64H87.3241ZM62.8841 39.88C62.0502 39.88 61.3759 39.8832 59.1007 39.5694L58.8274 41.5506C61.1923 41.8768 61.9579 41.88 62.8841 41.88V39.88ZM57.966 40.4976C57.8836 41.8157 57.8841 43.4513 57.8841 45.28H59.8841C59.8841 43.4287 59.8845 41.8643 59.9621 40.6224L57.966 40.4976ZM57.8841 45.28C57.8841 48.2584 57.9646 51.9557 58.2054 56.6117L60.2027 56.5083C59.9636 51.8843 59.8841 48.2216 59.8841 45.28H57.8841ZM58.2049 56.52C58.1764 57.231 57.8267 57.9996 57.2261 58.6762C56.6274 59.3508 55.8445 59.8582 55.0841 60.08L55.6441 62C56.8036 61.6618 57.9007 60.9292 58.722 60.0038C59.5415 59.0804 60.1517 57.889 60.2033 56.6L58.2049 56.52ZM55.3641 60.04C55.1866 60.04 55.1297 60.0204 55.1252 60.0187C55.1244 60.0184 55.1255 60.0188 55.1277 60.0199C55.13 60.0211 55.1317 60.0222 55.1324 60.0227C55.1343 60.0239 55.1258 60.0186 55.1055 59.9975C55.0551 59.945 54.9832 59.8509 54.8508 59.6486C54.7407 59.4804 54.5512 59.178 54.3561 58.8853L52.692 59.9947C52.8969 60.302 53.0175 60.4996 53.1774 60.7439C53.3149 60.9541 53.473 61.185 53.6627 61.3825C53.8698 61.5983 54.1202 61.7816 54.4429 61.8988C54.7485 62.0096 55.0615 62.04 55.3641 62.04V60.04ZM54.5019 59.2305C54.2579 58.0919 54.0288 57.0991 53.8753 55.9478L51.8928 56.2122C52.0593 57.4609 52.3102 58.5481 52.5463 59.6495L54.5019 59.2305ZM53.8806 55.997C53.8028 55.0629 53.7241 53.6506 53.7241 51.92H51.7241C51.7241 53.7094 51.8054 55.1771 51.8875 56.163L53.8806 55.997ZM53.724 51.9347L53.884 41.0547L51.8842 41.0253L51.7242 51.9053L53.724 51.9347ZM53.8841 41.04V39.28H51.8841V41.04H53.8841ZM53.1731 38.3227C51.1676 37.7173 48.5404 36.4338 46.4327 34.7743C44.2755 33.0759 42.9241 31.1951 42.9241 29.44H40.9241C40.9241 32.1649 42.9327 34.5641 45.1955 36.3457C47.5077 38.1662 50.3605 39.5627 52.5951 40.2373L53.1731 38.3227ZM42.9241 29.44C42.9241 26.5359 45.0796 23.6932 50.1969 22.2421L49.6512 20.3179C44.0485 21.9068 40.9241 25.3041 40.9241 29.44H42.9241ZM50.1202 22.2606C50.362 22.2122 50.9926 22.0326 51.5028 21.8959C51.78 21.8217 52.0456 21.7531 52.262 21.7036C52.5211 21.6443 52.5975 21.64 52.5641 21.64V19.64C52.3306 19.64 52.027 19.7057 51.8161 19.7539C51.5625 19.8119 51.2681 19.8883 50.9853 19.9641C50.3755 20.1274 49.8861 20.2678 49.7279 20.2994L50.1202 22.2606ZM53.5634 20.677C53.6456 18.4582 53.6432 16.5387 53.7991 14.9795L51.809 14.7805C51.6449 16.4213 51.6426 18.5018 51.5647 20.603L53.5634 20.677ZM53.8009 14.9597C53.9525 13.0645 54.2338 11.4245 56.0712 9.5871L54.657 8.17289C52.3344 10.4955 51.9756 12.6955 51.8072 14.8003L53.8009 14.9597ZM54.8094 9.71205C54.9477 9.80425 55.1601 10.0219 55.4138 10.4036C55.6568 10.7692 55.8958 11.2212 56.1095 11.7045C56.5503 12.7011 56.8168 13.675 56.846 14.1424L58.8421 14.0176C58.7913 13.205 58.4178 11.9789 57.9386 10.8955C57.6924 10.3388 57.4013 9.7808 57.0794 9.29643C56.768 8.82805 56.3805 8.35574 55.9188 8.04795L54.8094 9.71205ZM56.8476 14.164L57.4076 20.804L59.4005 20.636L58.8405 13.996L56.8476 14.164ZM58.4041 21.72C61.8726 21.72 63.8712 22.3486 64.9786 23.1278C66.027 23.8656 66.3641 24.7996 66.3641 25.76H68.3641C68.3641 24.2404 67.7811 22.6544 66.1296 21.4922C64.5369 20.3714 62.0556 19.72 58.4041 19.72V21.72ZM66.3641 25.76C66.3641 26.4229 66.2139 26.8282 66.0179 27.0694C65.8369 27.2923 65.5128 27.5032 64.8693 27.5645L65.0589 29.5555C66.0953 29.4568 66.9713 29.0677 67.5702 28.3306C68.1542 27.6118 68.3641 26.6971 68.3641 25.76H66.3641ZM65.8925 28.9314C66.0907 28.436 66.2041 27.9096 66.2041 27.44H64.2041C64.2041 27.6104 64.1574 27.884 64.0356 28.1886L65.8925 28.9314ZM66.2041 27.44C66.2041 26.8535 66.0606 26.267 65.6592 25.7603C65.2699 25.269 64.7183 24.9547 64.0958 24.7432C62.89 24.3334 61.0744 24.2 58.5641 24.2V26.2C61.0937 26.2 62.5982 26.3466 63.4523 26.6368C63.8598 26.7753 64.0232 26.916 64.0915 27.0022C64.1475 27.073 64.2041 27.1864 64.2041 27.44H66.2041ZM57.5642 25.2163L57.7242 35.0563L59.7239 35.0237L59.5639 25.1837L57.5642 25.2163ZM58.5503 36.0248C59.9747 36.2762 61.0735 36.36 62.5641 36.36V34.36C61.1747 34.36 60.1934 34.2838 58.8978 34.0552L58.5503 36.0248ZM62.5641 36.36C65.477 36.36 70.3846 35.6607 74.5951 33.9786C76.7022 33.1368 78.6989 32.0238 80.1829 30.5741C81.6818 29.1097 82.6841 27.2705 82.6841 25.04H80.6841C80.6841 26.6095 79.9964 27.9603 78.7853 29.1434C77.5592 30.3412 75.826 31.3332 73.8531 32.1214C69.9035 33.6992 65.2511 34.36 62.5641 34.36V36.36ZM82.6841 25.04C82.6841 17.5316 76.4714 12.4838 69.7859 9.37333C63.0425 6.23591 55.3591 4.84 51.5241 4.84V6.84C55.049 6.84 62.4456 8.16409 68.9422 11.1867C75.4968 14.2362 80.6841 18.7884 80.6841 25.04H82.6841ZM51.5241 4.84C48.4561 4.84 44.511 5.00117 41.2893 5.2428L41.4389 7.2372C44.6172 6.99882 48.512 6.84 51.5241 6.84V4.84ZM42.3479 6.06111L42.1879 5.18111L40.2202 5.53888L40.3802 6.41888L42.3479 6.06111ZM52.6441 24.2C51.596 24.2 49.6796 24.279 48.7052 24.4561L49.0629 26.4239C49.8485 26.281 51.6121 26.2 52.6441 26.2V24.2ZM48.6879 24.4594C47.628 24.6714 46.5209 25.0255 45.654 25.6116C44.7647 26.2128 44.0441 27.1269 44.0441 28.4H46.0441C46.0441 27.9931 46.2434 27.6272 46.7741 27.2684C47.3272 26.8945 48.1401 26.6086 49.0802 26.4206L48.6879 24.4594ZM44.0441 28.4C44.0441 30.4625 45.7758 31.7932 47.3632 32.6175C49.0316 33.4838 51.0288 34.0469 52.3882 34.4067L52.9 32.4733C51.5394 32.1131 49.7365 31.5962 48.2849 30.8425C46.7523 30.0468 46.0441 29.2175 46.0441 28.4H44.0441ZM53.6441 33.44V25.2H51.6441V33.44H53.6441ZM86.2122 35.12L85.765 36.0144L86.0058 36.1348L86.2746 36.1181L86.2122 35.12ZM103.492 48L102.882 47.2074L102.028 47.8648L102.748 48.6675L103.492 48ZM108.692 56.24L107.828 56.7439L107.835 56.7545L108.692 56.24ZM105.812 60.08L105.012 60.68L105.055 60.7369L105.105 60.7871L105.812 60.08ZM98.6922 50.48L99.4762 49.8593L99.0702 49.3465L98.4377 49.5129L98.6922 50.48ZM99.4922 45.12L99.086 46.0338L99.7856 46.3447L100.268 45.7506L99.4922 45.12ZM88.4522 56.32L89.4445 56.444L89.4476 56.4186L89.4495 56.393L88.4522 56.32ZM82.5322 54.4L81.5322 54.3884V54.4H82.5322ZM85.4922 36.96L86.4431 37.2693L86.4515 37.2437L86.4584 37.2177L85.4922 36.96ZM90.8522 36.56L91.825 36.7916L91.8522 36.6774V36.56H90.8522ZM96.5322 47.92L97.1014 48.7422L98.0866 48.0602L97.2393 47.2129L96.5322 47.92ZM94.2922 46.8V45.8H94.2506L94.2091 45.8035L94.2922 46.8ZM86.6594 34.2256C86.1768 33.9843 85.8966 33.7567 85.7479 33.5851C85.6023 33.4171 85.6122 33.3408 85.6122 33.36H83.6122C83.6122 34.5167 84.5594 35.4116 85.765 36.0144L86.6594 34.2256ZM85.6122 33.36C85.6122 33.3164 85.6578 33.0885 86.0978 32.6974C86.5061 32.3344 87.1106 31.9624 87.828 31.6248C89.2849 30.9392 90.9339 30.52 91.8122 30.52V28.52C90.5305 28.52 88.5794 29.0608 86.9764 29.8152C86.1638 30.1976 85.3732 30.6656 84.7691 31.2026C84.1965 31.7115 83.6122 32.4436 83.6122 33.36H85.6122ZM91.8122 30.52C96.4836 30.52 100.035 31.554 102.397 33.3982C104.722 35.2136 106.012 37.9048 106.012 41.52H108.012C108.012 37.3752 106.502 34.0664 103.628 31.8218C100.79 29.606 96.7407 28.52 91.8122 28.52V30.52ZM106.012 41.52C106.012 43.7663 104.791 45.7394 102.882 47.2074L104.102 48.7926C106.354 47.0606 108.012 44.5537 108.012 41.52H106.012ZM102.748 48.6675C104.737 50.8866 106.085 53.7557 107.828 56.7439L109.556 55.7361C107.939 52.9643 106.407 49.7534 104.237 47.3325L102.748 48.6675ZM107.835 56.7545C107.879 56.8282 107.928 56.9526 107.963 57.124C107.998 57.2902 108.012 57.4614 108.012 57.6H110.012C110.012 57.1189 109.924 56.3488 109.55 55.7255L107.835 56.7545ZM108.012 57.6C108.012 58.1102 107.795 58.5731 107.474 58.9151C107.132 59.2787 106.779 59.4 106.612 59.4V61.4C107.486 61.4 108.333 60.9213 108.931 60.2849C109.549 59.6269 110.012 58.6898 110.012 57.6H108.012ZM106.612 59.4C106.536 59.4 106.525 59.3904 106.541 59.3967C106.548 59.3994 106.553 59.4021 106.552 59.4018C106.551 59.401 106.54 59.3935 106.519 59.3729L105.105 60.7871C105.308 60.9896 105.543 61.1554 105.823 61.2633C106.099 61.3696 106.369 61.4 106.612 61.4V59.4ZM106.612 59.48C106.41 59.211 102.521 53.7054 99.4762 49.8593L97.9081 51.1007C100.943 54.9346 104.734 60.309 105.012 60.68L106.612 59.48ZM98.4377 49.5129C96.9773 49.8973 95.545 50.12 94.2122 50.12V52.12C95.7594 52.12 97.3671 51.8627 98.9467 51.4471L98.4377 49.5129ZM94.2122 50.12C92.1661 50.12 90.8922 48.7701 90.8922 47.04H88.8922C88.8922 49.9499 91.1382 52.12 94.2122 52.12V50.12ZM90.8922 47.04C90.8922 46.8128 91.1276 46.334 91.9165 45.8353C92.6482 45.3727 93.5853 45.08 94.3722 45.08V43.08C93.159 43.08 91.8562 43.5073 90.8478 44.1447C89.8967 44.746 88.8922 45.7472 88.8922 47.04H90.8922ZM94.3722 45.08C96.2329 45.08 97.7744 45.4509 99.086 46.0338L99.8983 44.2062C98.3299 43.5091 96.5115 43.08 94.3722 43.08V45.08ZM100.268 45.7506C101.354 44.4146 102.252 42.7489 102.252 41.28H100.252C100.252 42.0511 99.7105 43.2654 98.7161 44.4894L100.268 45.7506ZM102.252 41.28C102.252 39.5381 101.756 38.1074 100.911 36.9624C100.074 35.8294 98.9364 35.0284 97.7246 34.4636C95.3223 33.344 92.4729 33.08 90.5322 33.08V35.08C92.3515 35.08 94.8621 35.336 96.8798 36.2764C97.8779 36.7416 98.715 37.3556 99.3013 38.1501C99.8788 38.9326 100.252 39.9419 100.252 41.28H102.252ZM90.5322 33.08C89.5467 33.08 88.6443 33.3753 87.9242 33.6253C87.1356 33.8991 86.6178 34.0927 86.1498 34.1219L86.2746 36.1181C87.0866 36.0673 87.9287 35.7409 88.5802 35.5147C89.3 35.2647 89.9177 35.08 90.5322 35.08V33.08ZM87.4599 56.196C87.4063 56.6246 87.2467 56.8664 87.088 57.0036C86.9242 57.1453 86.6864 57.24 86.3722 57.24V59.24C87.098 59.24 87.8202 59.0147 88.3963 58.5164C88.9777 58.0136 89.338 57.2954 89.4445 56.444L87.4599 56.196ZM86.3722 57.24C85.0687 57.24 83.5322 56.0765 83.5322 54.4H81.5322C81.5322 57.3635 84.1557 59.24 86.3722 59.24V57.24ZM83.5321 54.4116C83.6108 47.6427 84.3112 43.8231 86.4431 37.2693L84.5412 36.6507C82.3532 43.3769 81.6135 47.3973 81.5323 54.3884L83.5321 54.4116ZM86.4584 37.2177C86.5151 37.005 86.7111 36.752 87.1715 36.5331C87.625 36.3176 88.2137 36.2 88.7722 36.2V34.2C87.9706 34.2 87.0794 34.3624 86.3128 34.7269C85.5533 35.088 84.7892 35.715 84.526 36.7023L86.4584 37.2177ZM88.7722 36.2C89.2372 36.2 89.5608 36.2868 89.7312 36.3854C89.807 36.4294 89.8305 36.4626 89.836 36.4714C89.8383 36.475 89.8522 36.4946 89.8522 36.56H91.8522C91.8522 35.672 91.375 35.0261 90.7332 34.6546C90.1436 34.3132 89.4272 34.2 88.7722 34.2V36.2ZM89.8794 36.3284C88.2563 43.1454 87.9324 49.7212 87.4549 56.247L89.4495 56.393C89.932 49.7988 90.2481 43.4146 91.825 36.7916L89.8794 36.3284ZM94.1322 49.8C95.0915 49.8 95.9263 49.5557 97.1014 48.7422L95.963 47.0978C95.0581 47.7243 94.6129 47.8 94.1322 47.8V49.8ZM97.2393 47.2129C96.784 46.7576 96.3744 46.3558 95.9008 46.1114C95.3706 45.8377 94.8506 45.8 94.2922 45.8V47.8C94.7738 47.8 94.8938 47.8423 94.9835 47.8886C95.1299 47.9642 95.3204 48.1224 95.8251 48.6271L97.2393 47.2129ZM94.2091 45.8035C93.6561 45.8495 93.1115 45.9705 92.6725 46.2238C92.2106 46.4903 91.7722 46.9736 91.7722 47.68H93.7722C93.7722 47.7668 93.7433 47.8526 93.7003 47.9156C93.6635 47.9693 93.6378 47.9759 93.6719 47.9562C93.7528 47.9095 93.9683 47.8305 94.3752 47.7965L94.2091 45.8035ZM91.7722 47.68C91.7722 48.4725 92.1914 49.0413 92.6875 49.3721C93.1488 49.6796 93.69 49.8 94.1322 49.8V47.8C94.0835 47.8 94.0181 47.7925 93.9499 47.7736C93.8816 47.7548 93.8298 47.7299 93.7969 47.7079C93.7654 47.6869 93.7628 47.6768 93.7681 47.6858C93.7765 47.7001 93.7722 47.7056 93.7722 47.68H91.7722Z" fill="url(#paint3_linear_155_271)"/>
<defs>
<linearGradient id="paint0_linear_155_271" x1="102.5" y1="74" x2="113.364" y2="158.679" gradientUnits="userSpaceOnUse">
<stop stop-color="#081C65"/>
<stop offset="1" stop-color="#13ADDF"/>
</linearGradient>
<linearGradient id="paint1_linear_155_271" x1="-52.2171" y1="79.58" x2="-30.7648" y2="155.906" gradientUnits="userSpaceOnUse">
<stop stop-color="#DC3545"/>
<stop offset="1" stop-color="#1C1F23"/>
</linearGradient>
<linearGradient id="paint2_linear_155_271" x1="74.5" y1="12" x2="103.147" y2="87.1534" gradientUnits="userSpaceOnUse">
<stop stop-color="#081C65"/>
<stop offset="1" stop-color="#13ADDF"/>
</linearGradient>
<linearGradient id="paint3_linear_155_271" x1="22.4245" y1="17.58" x2="62.9419" y2="66.1018" gradientUnits="userSpaceOnUse">
<stop stop-color="#DC3545"/>
<stop offset="1" stop-color="#1C1F23"/>
</linearGradient>
</defs>
</svg>
