<svg width="131" height="38" viewBox="0 0 131 38" fill="none" xmlns="http://www.w3.org/2000/svg">
<path d="M118.232 29.824H123.576L131 22.4L123.576 14.976H118.232L125.656 22.4L118.232 29.824Z" fill="url(#paint0_linear_85_13)"/>
<path d="M20.5938 26.8984C22.3164 26.9375 23.1777 27.1113 23.1777 27.4199C23.1855 27.8301 22.4199 28.0586 20.8809 28.1055C18.7012 28.1055 17.5977 28.2949 17.5703 28.6738C17.5703 28.8691 18.7402 29.2051 21.0801 29.6816C22.5605 30.0059 23.3008 30.5977 23.3008 31.457C23.3008 32.4414 22.3848 33.1289 20.5527 33.5195C20.2715 33.5703 19.9629 33.5957 19.627 33.5957C17.959 33.5957 16.7891 33.1797 16.1172 32.3477C16.0352 32.1797 15.9941 32.0312 15.9941 31.9023C15.9941 31.3516 16.7812 31.0293 18.3555 30.9355C19.7148 30.9941 20.3945 31.2227 20.3945 31.6211C20.3945 31.8203 19.9902 31.9414 19.1816 31.9844C17.9707 31.957 17.3047 31.9512 17.1836 31.9668C17.0625 31.9785 17.002 32.0117 17.002 32.0664C17.0957 32.3555 17.877 32.5293 19.3457 32.5879C21.0957 32.5605 21.9707 32.2051 21.9707 31.5215C21.9707 30.9863 20.6777 30.4805 18.0918 30.0039C17.3809 29.8516 16.8945 29.6523 16.6328 29.4062C16.375 29.1602 16.2422 28.9023 16.2344 28.6328C16.2344 28.0078 16.9141 27.5098 18.2734 27.1387C18.9805 26.9785 19.7539 26.8984 20.5938 26.8984ZM27.5957 26.4414C28.8535 26.4414 29.7559 27.3262 30.3027 29.0957C30.3887 29.4512 30.4316 29.8555 30.4316 30.3086C30.4316 32.1367 29.6504 33.3281 28.0879 33.8828C27.6113 34.0078 27.1152 34.0332 26.5996 33.959C24.5996 33.7441 23.5996 32.6484 23.5996 30.6719C23.5996 29.1562 24.3301 28.1074 25.791 27.5254C26.1582 26.8027 26.7598 26.4414 27.5957 26.4414ZM26.4414 28.5098C26.2891 28.7988 26.1621 28.9434 26.0605 28.9434C25.9668 28.9434 25.9004 28.7793 25.8613 28.4512C25.3027 28.7129 25.0234 29.3848 25.0234 30.4668C25.082 32.2246 25.8125 33.1035 27.2148 33.1035C28.5117 33.1035 29.1973 32.2422 29.2715 30.5195C29.2715 29.1523 28.8008 28.2949 27.8594 27.9473C27.6016 27.8457 27.3398 27.8418 27.0742 27.9355C26.8086 28.0293 26.5977 28.2207 26.4414 28.5098ZM34.6094 26.7344C35.4297 26.7344 35.9688 26.8184 36.2266 26.9863C36.4844 27.1504 36.6172 27.3652 36.625 27.6309C36.5898 27.9434 36.0176 28.0996 34.9082 28.0996H33.4551C33.2871 28.3457 33.1328 28.9297 32.9922 29.8516H33.0332C34.6543 29.7656 35.5078 29.7227 35.5938 29.7227C36.0664 29.7422 36.3027 29.9004 36.3027 30.1973C36.3027 30.7012 35.125 30.9844 32.7695 31.0469C32.7422 32.2969 32.7285 33.1699 32.7285 33.666C32.7285 34.1582 32.5176 34.3809 32.0957 34.334C31.6777 34.2871 31.4688 33.834 31.4688 32.9746C31.4688 32.5762 31.5098 31.9102 31.5918 30.9766C31.1191 30.9766 30.8828 30.8379 30.8828 30.5605C30.8828 30.2793 31.1758 30.0898 31.7617 29.9922C31.8672 29.3164 32.0078 28.6719 32.1836 28.0586C31.5117 27.9961 31.1758 27.834 31.1758 27.5723C31.2148 27.0137 32.3594 26.7344 34.6094 26.7344ZM38.2129 25.8906C38.3262 25.8906 38.377 25.9297 38.3652 26.0078C38.3574 26.082 38.334 26.1602 38.2949 26.2422C38.248 26.3438 38.2383 26.4473 38.2656 26.5527C38.3984 27.0449 39.2148 27.3555 40.7148 27.4844C41.4492 26.582 42.4863 26.1309 43.8262 26.1309C44.666 26.2168 45.0859 26.5762 45.0859 27.209C45.0664 28.1582 43.8184 28.6875 41.3418 28.7969C40.6309 30.5508 40.2754 32.2188 40.2754 33.8008C40.2754 34.2734 40.1797 34.5098 39.9883 34.5098C39.4297 34.5332 39.127 33.9355 39.0801 32.7168C39.0801 31.123 39.3672 29.7988 39.9414 28.7441C38.9961 28.5957 38.2285 28.3359 37.6387 27.9648C37.248 27.7227 37.0527 27.4375 37.0527 27.1094C37.0527 26.457 37.4395 26.0508 38.2129 25.8906ZM41.998 27.5547C43.1348 27.5078 43.793 27.2754 43.9727 26.8574C43.9531 26.7637 43.8398 26.7168 43.6328 26.7168C43.0625 26.7168 42.5176 26.9961 41.998 27.5547ZM49.8027 34.1641C48.9121 34.1641 48.3457 33.8984 48.1035 33.3672C47.748 33.4883 47.4395 33.5488 47.1777 33.5488C46.6113 33.5488 46.1602 33.3691 45.8242 33.0098C45.4883 32.6543 45.3203 32.1699 45.3203 31.5566C45.3203 30.127 45.7852 28.9805 46.7148 28.1172C47.6094 27.3828 48.1523 27.082 48.3438 27.2148C48.5352 27.3477 48.5898 27.5352 48.5078 27.7773C47.1797 28.6914 46.5156 29.8105 46.5156 31.1348C46.5156 32.1113 46.8398 32.5996 47.4883 32.5996H47.6289C47.4844 32.041 47.4121 31.5625 47.4121 31.1641C47.4121 30.5469 47.6035 30.002 47.9863 29.5293C48.4082 29.0137 48.9395 28.7559 49.5801 28.7559C49.9551 28.7559 50.25 28.9004 50.4648 29.1895C50.6758 29.4629 50.7812 29.8047 50.7812 30.2148C50.7812 31.207 50.168 32.1016 48.9414 32.8984C49.0703 33.0977 49.457 33.1973 50.1016 33.1973C50.6992 33.1309 51.1797 32.832 51.543 32.3008C51.9102 31.7695 52.0605 30.8555 51.9941 29.5586C51.9277 28.4297 51.5605 27.4844 50.8926 26.7227C50.6895 26.3867 50.793 26.2227 51.2031 26.2305C51.4336 26.2305 51.7734 26.459 52.2227 26.916C52.9688 27.5098 53.3418 28.5488 53.3418 30.0332C53.3418 31.2246 53.0625 32.1875 52.5039 32.9219C51.8867 33.75 50.9863 34.1641 49.8027 34.1641ZM48.4375 31.3105C48.4375 31.6699 48.4844 31.9258 48.5781 32.0781C49.2031 31.582 49.541 30.9766 49.5918 30.2617V30.2207C49.5918 29.9707 49.4863 29.8418 49.2754 29.834C49.0059 29.834 48.7676 30.0879 48.5605 30.5957C48.4785 30.873 48.4375 31.1113 48.4375 31.3105ZM57.6191 26.0898C57.9707 26.0898 58.332 27.4316 58.7031 30.1152C59.0898 32.1895 59.2832 33.5156 59.2832 34.0938C59.2832 34.1719 59.2266 34.2109 59.1133 34.2109C58.6953 34.1797 58.4199 33.8633 58.2871 33.2617L57.9531 31.8906C57.2734 31.9805 56.459 32.0117 55.5098 31.9844C55.0215 33.5586 54.7031 34.373 54.5547 34.4277C54.4844 34.459 54.416 34.459 54.3496 34.4277C53.9199 34.1348 53.7383 33.707 53.8047 33.1445C53.8047 33.0312 53.9297 32.4902 54.1797 31.5215C53.875 31.3496 53.7227 30.9883 53.7227 30.4375C53.7227 30.3828 53.7383 30.3516 53.7695 30.3438C53.8008 30.332 53.8262 30.3359 53.8457 30.3555C54.0488 30.5508 54.2852 30.6484 54.5547 30.6484C55.4492 28.5859 56.252 27.1641 56.9629 26.3828C57.1582 26.1875 57.377 26.0898 57.6191 26.0898ZM55.9258 30.8652L57.7949 30.8125C57.4785 28.8281 57.2832 27.8359 57.209 27.8359C57.0137 27.9648 56.5859 28.9746 55.9258 30.8652ZM61.2461 34.3516C60.5469 34.3516 60.1133 33.209 59.9453 30.9238C59.7109 30.7285 59.5938 30.5508 59.5938 30.3906C59.5938 30.1328 59.6543 30.0137 59.7754 30.0332C59.8105 30.0488 59.8535 30.0566 59.9043 30.0566C59.9043 29.0332 60.0195 28.2734 60.25 27.7773C60.5391 27.1289 61.0645 26.7715 61.8262 26.7051C61.9668 26.6934 62.5254 26.6875 63.502 26.6875C64.2754 26.6875 64.957 26.8105 65.5469 27.0566C66.3477 27.3926 66.748 27.8945 66.748 28.5625C66.748 29.4375 65.9805 30.1406 64.4453 30.6719C64.293 30.7305 63.918 30.8066 63.3203 30.9004C63.9844 31.2441 64.8789 32.0156 66.0039 33.2148C66.2227 33.4648 66.332 33.7402 66.332 34.041C66.332 34.4238 66.209 34.6152 65.9629 34.6152C65.834 34.6152 65.7227 34.582 65.6289 34.5156C63.4961 32.4297 62.0859 31.502 61.3984 31.7324C61.4141 32.248 61.5488 32.8672 61.8027 33.5898C61.8965 34.0977 61.7109 34.3516 61.2461 34.3516ZM61.2285 30.2383C62.2363 30.1016 63.1875 29.8555 64.082 29.5C64.9766 29.1445 65.4238 28.8281 65.4238 28.5508C65.4238 28.1016 64.9141 27.877 63.8945 27.877C62.8555 27.877 62.0098 27.9043 61.3574 27.959C61.2715 28.3965 61.2285 29.0488 61.2285 29.916V30.2383ZM70.6914 26.8984C71.6406 26.8789 72.2754 27.0469 72.5957 27.4023C72.7051 27.5781 72.709 27.7754 72.6074 27.9941C72.373 28.1699 71.834 28.2578 70.9902 28.2578H69.5371C69.3691 28.5078 69.1816 29.1953 68.9746 30.3203H69.0156C70.0977 30.2305 70.6836 30.1855 70.7734 30.1855C71.2422 30.2051 71.4766 30.3633 71.4766 30.6602C71.2734 31.0977 70.8535 31.3496 70.2168 31.416C69.7051 31.4629 69.2168 31.4941 68.752 31.5098L68.7109 32.4766C68.7539 32.9414 68.959 33.1738 69.3262 33.1738C70.834 33.0996 71.7559 33.0293 72.0918 32.9629C72.2402 32.9551 72.3145 32.998 72.3145 33.0918C72.3145 33.623 71.4199 34.1035 69.6309 34.5332C69.3613 34.5957 69.0996 34.627 68.8457 34.627C67.8496 34.627 67.3516 34.1289 67.3516 33.1328C67.3516 32.7344 67.4258 32.1367 67.5742 31.3398C67.1016 31.2031 66.8652 31.0312 66.8652 30.8242C66.8652 30.6758 67.1582 30.5547 67.7441 30.4609C67.9199 29.5781 68.1113 28.8301 68.3184 28.2168H68.2656C67.5938 28.1582 67.2578 27.998 67.2578 27.7363C67.3008 27.3105 68.4453 27.0312 70.6914 26.8984ZM84.6348 27.2617C84.6348 26.957 84.8242 26.7656 85.2031 26.6875C85.4297 26.6875 85.5801 26.7109 85.6543 26.7578C85.7285 26.8047 85.7812 26.8867 85.8125 27.0039C85.8477 27.1211 85.873 27.2637 85.8887 27.4316L86.0469 30.4902C86.0469 30.752 86.0879 31.3477 86.1699 32.2773C86.2559 33.2031 86.2227 33.75 86.0703 33.918C85.8672 33.9883 85.709 34.0234 85.5957 34.0234C85.2988 34.0234 85.1172 33.8379 85.0508 33.4668L84.9688 31.6504C84.2773 31.7441 83.4219 31.7363 82.4023 31.627C82.4297 32.0918 82.4434 32.7051 82.4434 33.4668C82.4434 33.6699 82.4062 33.7949 82.332 33.8418C82.2734 33.8887 82.166 33.9277 82.0098 33.959C81.8301 33.959 81.6836 33.918 81.5703 33.8359C81.4609 33.75 81.3496 33.5098 81.2363 33.1152C81.1543 31.4043 81.1875 29.7695 81.3359 28.2109C81.375 27.457 81.6367 27.0801 82.1211 27.0801C82.418 27.0801 82.5332 27.2715 82.4668 27.6543C82.4004 28.2402 82.3672 28.8125 82.3672 29.3711V30.5195C82.7969 30.5938 83.2871 30.6309 83.8379 30.6309C84.3887 30.6309 84.7324 30.6172 84.8691 30.5898L84.6348 27.2617ZM90.6934 26.4414C91.9512 26.4414 92.8535 27.3262 93.4004 29.0957C93.4863 29.4512 93.5293 29.8555 93.5293 30.3086C93.5293 32.1367 92.748 33.3281 91.1855 33.8828C90.709 34.0078 90.2129 34.0332 89.6973 33.959C87.6973 33.7441 86.6973 32.6484 86.6973 30.6719C86.6973 29.1562 87.4277 28.1074 88.8887 27.5254C89.2559 26.8027 89.8574 26.4414 90.6934 26.4414ZM89.5391 28.5098C89.3867 28.7988 89.2598 28.9434 89.1582 28.9434C89.0645 28.9434 88.998 28.7793 88.959 28.4512C88.4004 28.7129 88.1211 29.3848 88.1211 30.4668C88.1797 32.2246 88.9102 33.1035 90.3125 33.1035C91.6094 33.1035 92.2949 32.2422 92.3691 30.5195C92.3691 29.1523 91.8984 28.2949 90.957 27.9473C90.6992 27.8457 90.4375 27.8418 90.1719 27.9355C89.9062 28.0293 89.6953 28.2207 89.5391 28.5098ZM94.2734 33.0742C94.0234 32.543 93.9316 31.8691 93.998 31.0527C94.2676 28.916 94.9316 27.3418 95.9902 26.3301C96.0762 26.2637 96.1699 26.2305 96.2715 26.2305C96.4238 26.2305 96.5215 26.3691 96.5645 26.6465C95.9316 28.2949 95.5332 29.6035 95.3691 30.5723C95.3105 30.8809 95.2812 31.1895 95.2812 31.498C95.3477 32.2871 95.6035 32.6816 96.0488 32.6816C96.7949 32.6816 97.5176 31.3828 98.2168 28.7852C98.4004 27.9766 98.6133 27.5723 98.8555 27.5723C98.9766 27.5723 99.0938 27.7383 99.207 28.0703C99.4766 29.1094 99.709 30.125 99.9043 31.1172C100.1 32.1055 100.234 32.9062 100.309 33.5195C100.309 33.8945 100.092 34.082 99.6582 34.082C99.4316 34.082 99.248 33.877 99.1074 33.4668C98.9668 33.0566 98.8359 32.084 98.7148 30.5488C98.4727 31.6934 98.0371 32.5918 97.4082 33.2441C96.8848 33.748 96.3809 34 95.8965 34H95.8789C95.125 33.9805 94.5898 33.6719 94.2734 33.0742ZM105.113 26.8984C106.836 26.9375 107.697 27.1113 107.697 27.4199C107.705 27.8301 106.939 28.0586 105.4 28.1055C103.221 28.1055 102.117 28.2949 102.09 28.6738C102.09 28.8691 103.26 29.2051 105.6 29.6816C107.08 30.0059 107.82 30.5977 107.82 31.457C107.82 32.4414 106.904 33.1289 105.072 33.5195C104.791 33.5703 104.482 33.5957 104.146 33.5957C102.479 33.5957 101.309 33.1797 100.637 32.3477C100.555 32.1797 100.514 32.0312 100.514 31.9023C100.514 31.3516 101.301 31.0293 102.875 30.9355C104.234 30.9941 104.914 31.2227 104.914 31.6211C104.914 31.8203 104.51 31.9414 103.701 31.9844C102.49 31.957 101.824 31.9512 101.703 31.9668C101.582 31.9785 101.521 32.0117 101.521 32.0664C101.615 32.3555 102.396 32.5293 103.865 32.5879C105.615 32.5605 106.49 32.2051 106.49 31.5215C106.49 30.9863 105.197 30.4805 102.611 30.0039C101.9 29.8516 101.414 29.6523 101.152 29.4062C100.895 29.1602 100.762 28.9023 100.754 28.6328C100.754 28.0078 101.434 27.5098 102.793 27.1387C103.5 26.9785 104.273 26.8984 105.113 26.8984ZM111.699 26.8984C112.648 26.8789 113.283 27.0469 113.604 27.4023C113.713 27.5781 113.717 27.7754 113.615 27.9941C113.381 28.1699 112.842 28.2578 111.998 28.2578H110.545C110.377 28.5078 110.189 29.1953 109.982 30.3203H110.023C111.105 30.2305 111.691 30.1855 111.781 30.1855C112.25 30.2051 112.484 30.3633 112.484 30.6602C112.281 31.0977 111.861 31.3496 111.225 31.416C110.713 31.4629 110.225 31.4941 109.76 31.5098L109.719 32.4766C109.762 32.9414 109.967 33.1738 110.334 33.1738C111.842 33.0996 112.764 33.0293 113.1 32.9629C113.248 32.9551 113.322 32.998 113.322 33.0918C113.322 33.623 112.428 34.1035 110.639 34.5332C110.369 34.5957 110.107 34.627 109.854 34.627C108.857 34.627 108.359 34.1289 108.359 33.1328C108.359 32.7344 108.434 32.1367 108.582 31.3398C108.109 31.2031 107.873 31.0312 107.873 30.8242C107.873 30.6758 108.166 30.5547 108.752 30.4609C108.928 29.5781 109.119 28.8301 109.326 28.2168H109.273C108.602 28.1582 108.266 27.998 108.266 27.7363C108.309 27.3105 109.453 27.0312 111.699 26.8984Z" fill="url(#paint1_linear_85_13)"/>
<path d="M75.1278 27.9177L75.6797 23.7051L77.1054 25.3703L79.7682 16.3374L82.5803 18.2617C85.4886 11.9712 87.235 8.47917 90.8837 2.41111C98.6957 5.37516 102.324 8.08701 106.933 15.5215L95.8917 25.066L88.332 16.8195L81.822 24.9533L80.1111 22.9551L77.7011 29.7574L75.1278 27.9177Z" fill="#FCD520" stroke="black"/>
<path d="M77.1518 25.6187L75.7725 24.202L75.3203 27.7539L77.6548 29.509L80.0922 22.6294L81.8951 24.7471L88.4051 16.6133L90.3547 18.6961L94.5404 19.0191L88.405 12L81.9357 21.9775L80.0922 17.5L77.1518 25.6187Z" fill="#E29722"/>
<path d="M94.706 19.3098L90.2816 18.9022C92.7127 21.2516 93.9328 22.6032 95.8917 25.066L106.813 15.4792C104.139 11.0763 102.4 9.14497 98.9222 6.65118L99.4842 12.6505L94.7676 13.0674L94.706 19.3098Z" fill="black" stroke="black"/>
<path d="M55.888 21.856H51.616V12.808L46.312 20.104H43.552L38.272 12.808V21.856L34 24.304V7.72H38.824L44.944 16.144L51.04 7.72H55.888V21.856ZM77.1764 14.8L73.1684 21.88H58.9844V7.72H73.1684L77.1764 14.8ZM72.5444 14.8L70.3364 10.888H63.2564V18.712H70.3364L72.5444 14.8Z" fill="url(#paint2_linear_85_13)"/>
<path d="M12.768 29.824H7.424L0 22.4L7.424 14.976H12.768L5.344 22.4L12.768 29.824Z" fill="url(#paint3_linear_85_13)"/>
<defs>
<linearGradient id="paint0_linear_85_13" x1="122.5" y1="6" x2="100.838" y2="33.1273" gradientUnits="userSpaceOnUse">
<stop stop-color="#081C65"/>
<stop offset="1" stop-color="#13ADDF"/>
</linearGradient>
<linearGradient id="paint1_linear_85_13" x1="65.5" y1="24" x2="66.6618" y2="43.3662" gradientUnits="userSpaceOnUse">
<stop stop-color="#081C65"/>
<stop offset="1" stop-color="#13ADDF"/>
</linearGradient>
<linearGradient id="paint2_linear_85_13" x1="22.283" y1="5.16" x2="34.7979" y2="30.9715" gradientUnits="userSpaceOnUse">
<stop stop-color="#DC3545"/>
<stop offset="1" stop-color="#1C1F23"/>
</linearGradient>
<linearGradient id="paint3_linear_85_13" x1="-4.3302" y1="8.88" x2="13.9838" y2="19.3493" gradientUnits="userSpaceOnUse">
<stop stop-color="#DC3545"/>
<stop offset="1" stop-color="#1C1F23"/>
</linearGradient>
</defs>
</svg>
