<svg width="326" height="78" viewBox="0 0 326 78" fill="none" xmlns="http://www.w3.org/2000/svg">
<path d="M161.636 49.84V62.4C161.636 63.04 161.316 64.56 160.996 64.64C159.716 64.8 158.676 64.96 157.716 64.96C156.596 64.96 155.636 64.8 154.756 64.48C153.556 59.68 149.796 52.72 145.956 47.6C144.516 47.84 142.996 48.08 141.556 48.24C138.196 48 134.436 47.36 131.156 45.6V46.4L130.996 63.12C130.596 64.64 129.076 64.72 127.636 64.72H124.676C123.876 64.72 123.396 63.84 123.396 63.04C123.396 62.88 123.396 62.72 123.476 62.48C123.556 57.2 123.716 52 123.716 46.72C123.716 44.08 123.796 41.44 124.036 38.96C122.756 37.12 122.196 35.6 122.196 34.32C122.196 32.64 123.236 31.44 125.156 30.88C128.356 14.72 136.356 4 146.836 4C159.716 4 161.636 22.96 161.796 38.08C164.276 36.48 165.236 35.68 165.236 34.56C165.236 34.32 165.236 34.16 165.156 33.92C166.996 33.92 167.716 34.88 167.716 36C167.716 37.2 166.916 38.64 165.636 39.6C164.356 40.56 163.076 41.52 161.796 42.24C161.716 45.12 161.636 47.68 161.636 49.84ZM146.276 9.76C140.596 9.76 135.316 18.8 132.756 31.04C133.316 31.12 133.876 31.2 134.436 31.36C138.836 33.28 144.116 37.68 148.916 43.36C150.996 42.88 153.076 42.32 155.076 41.52C155.156 39.2 155.316 36.48 155.316 33.68C155.316 22.56 153.796 9.76 146.276 9.76ZM131.956 35.6C131.716 37.28 131.476 38.96 131.396 40.72C134.756 43.12 138.836 44.08 143.076 44.08C139.396 39.92 135.396 36.64 131.956 35.6ZM154.596 49.12C154.596 48.56 154.676 47.2 154.836 45.44C153.716 45.84 152.596 46.16 151.396 46.48C152.516 47.92 153.556 49.44 154.596 51.04V49.12ZM173.554 33.28C174.754 33.28 174.914 33.84 174.914 35.04C174.834 40.8 172.514 42.48 171.154 53.6V53.92C171.154 54.64 171.554 55.28 172.034 55.28C173.154 55.28 174.914 54.32 177.394 53.44C178.594 52.96 180.194 52.16 180.994 52.16C181.794 52.16 181.874 53.52 181.874 54C181.874 57.44 175.954 62.56 172.034 62.56C166.674 62.56 165.954 57.36 165.954 53.28C165.954 47.28 169.314 38.32 171.074 35.04C171.554 34.16 172.114 33.76 173.554 33.28ZM191.601 33.28C192.801 33.28 192.961 33.84 192.961 35.04C192.881 40.8 190.561 42.48 189.201 53.6V53.92C189.201 54.64 189.601 55.28 190.081 55.28C191.201 55.28 192.961 54.32 195.441 53.44C196.641 52.96 198.241 52.16 199.041 52.16C199.841 52.16 199.921 53.52 199.921 54C199.921 57.44 194.001 62.56 190.081 62.56C184.721 62.56 184.001 57.36 184.001 53.28C184.001 47.28 187.361 38.32 189.121 35.04C189.601 34.16 190.161 33.76 191.601 33.28ZM246.448 54.24C247.727 55.28 248.128 56.24 248.128 57.12C248.128 57.68 247.968 58.32 247.808 58.96C242.768 62 235.328 64.8 226.528 64.8C214.848 64.8 201.888 54.16 201.888 37.2C201.888 24.56 211.888 4.56 232.608 4.56C243.728 4.56 249.808 10.72 249.808 19.92C249.808 27.6 243.888 30.88 237.568 30.88C232.608 30.88 228.928 27.28 228.928 23.12C228.928 19.28 233.088 15.92 236.848 15.92H237.168C234.528 18.32 233.168 19.92 233.168 22.72C233.168 24.16 234.208 26.64 237.248 26.64C240.448 26.64 245.248 25.28 245.248 19.6C245.248 11.84 239.648 9.84 232.768 9.84C219.728 9.84 208.608 24.16 208.608 36.4C208.608 49.84 219.088 58 228.528 58C236.208 58 241.488 56.48 246.448 54.24ZM253.512 58.88C251.352 55.28 250.472 51.84 250.472 48.64C250.472 40.08 257.832 33.76 265.832 33.76C267.592 33.76 269.032 34 270.072 34.4C271.352 34.96 272.072 35.52 272.072 36C272.072 36.64 271.112 36.96 270.392 37.04H270.472C272.232 37.04 274.232 37.44 275.912 38.56C277.272 39.44 278.312 42.8 278.312 44.96C278.312 54.8 267.752 61.36 258.152 61.76C257.832 62.72 256.872 63.44 255.912 64.32C254.312 62.24 253.512 60.32 253.512 59.04V58.88ZM270.632 41.92C266.392 41.92 263.512 47.04 260.552 54.96H261.592C265.832 54.96 273.832 50.08 273.832 44.48C273.832 42.8 272.552 41.92 270.632 41.92ZM266.472 37.76C267.112 37.6 267.672 37.36 268.312 37.28C267.032 37.52 265.832 37.84 264.792 38.16C258.072 39.76 255.112 45.44 255.112 50.32C255.112 51.12 255.192 51.92 255.432 52.72C258.872 43.92 261.992 39.12 266.472 37.76ZM268.712 37.2C268.552 37.2 268.472 37.2 268.312 37.28C268.472 37.2 268.552 37.2 268.712 37.2ZM282.574 58.88C280.414 55.28 279.534 51.84 279.534 48.64C279.534 40.08 286.894 33.76 294.894 33.76C296.654 33.76 298.094 34 299.134 34.4C300.414 34.96 301.134 35.52 301.134 36C301.134 36.64 300.174 36.96 299.454 37.04H299.534C301.294 37.04 303.294 37.44 304.974 38.56C306.334 39.44 307.374 42.8 307.374 44.96C307.374 54.8 296.814 61.36 287.214 61.76C286.894 62.72 285.934 63.44 284.974 64.32C283.374 62.24 282.574 60.32 282.574 59.04V58.88ZM299.694 41.92C295.454 41.92 292.574 47.04 289.614 54.96H290.654C294.894 54.96 302.894 50.08 302.894 44.48C302.894 42.8 301.614 41.92 299.694 41.92ZM295.534 37.76C296.174 37.6 296.734 37.36 297.374 37.28C296.094 37.52 294.894 37.84 293.854 38.16C287.134 39.76 284.174 45.44 284.174 50.32C284.174 51.12 284.254 51.92 284.494 52.72C287.934 43.92 291.054 39.12 295.534 37.76ZM297.774 37.2C297.614 37.2 297.534 37.2 297.374 37.28C297.534 37.2 297.614 37.2 297.774 37.2ZM316.757 33.28C317.957 33.28 318.117 33.84 318.117 35.04C318.037 40.8 315.717 42.48 314.357 53.6V53.92C314.357 54.64 314.757 55.28 315.237 55.28C316.357 55.28 318.117 54.32 320.597 53.44C321.797 52.96 323.397 52.16 324.197 52.16C324.997 52.16 325.077 53.52 325.077 54C325.077 57.44 319.157 62.56 315.237 62.56C309.877 62.56 309.157 57.36 309.157 53.28C309.157 47.28 312.517 38.32 314.277 35.04C314.757 34.16 315.317 33.76 316.757 33.28Z" fill="url(#paint0_linear_156_272)"/>
<path d="M160.996 64.64L161.12 65.6323L161.18 65.6248L161.239 65.6101L160.996 64.64ZM154.756 64.48L153.786 64.7225L153.915 65.2382L154.415 65.4198L154.756 64.48ZM145.956 47.6L146.756 47L146.391 46.5137L145.792 46.6136L145.956 47.6ZM141.556 48.24L141.485 49.2375L141.576 49.244L141.667 49.2339L141.556 48.24ZM131.156 45.6L131.629 44.7188L130.156 43.9285V45.6H131.156ZM131.156 46.4L132.156 46.4096V46.4H131.156ZM130.996 63.12L131.963 63.3745L131.995 63.2541L131.996 63.1296L130.996 63.12ZM123.476 62.48L124.425 62.7962L124.474 62.6496L124.476 62.4951L123.476 62.48ZM124.036 38.96L125.032 39.0563L125.067 38.6906L124.857 38.3889L124.036 38.96ZM125.156 30.88L125.436 31.84L126.019 31.67L126.137 31.0742L125.156 30.88ZM161.796 38.08L160.796 38.0906L160.815 39.9028L162.338 38.9203L161.796 38.08ZM165.156 33.92V32.92H163.769L164.208 34.2362L165.156 33.92ZM165.636 39.6L166.236 40.4L166.236 40.4L165.636 39.6ZM161.796 42.24L161.306 41.3684L160.812 41.6461L160.797 42.2122L161.796 42.24ZM132.756 31.04L131.777 30.8353L131.559 31.8791L132.615 32.0299L132.756 31.04ZM134.436 31.36L134.836 30.4435L134.775 30.4168L134.711 30.3985L134.436 31.36ZM148.916 43.36L148.152 44.0055L148.546 44.4716L149.141 44.3344L148.916 43.36ZM155.076 41.52L155.448 42.4485L156.053 42.2063L156.076 41.5545L155.076 41.52ZM131.956 35.6L132.246 34.6428L131.131 34.3058L130.966 35.4586L131.956 35.6ZM131.396 40.72L130.397 40.6746L130.373 41.2177L130.815 41.5337L131.396 40.72ZM143.076 44.08V45.08H145.296L143.825 43.4174L143.076 44.08ZM154.836 45.44L155.832 45.5305L155.974 43.9719L154.5 44.4983L154.836 45.44ZM151.396 46.48L151.139 45.5138L149.68 45.9026L150.607 47.0939L151.396 46.48ZM154.596 51.04L153.758 51.585L155.596 54.4134V51.04H154.596ZM160.636 49.84V62.4H162.636V49.84H160.636ZM160.636 62.4C160.636 62.6078 160.575 63.0598 160.467 63.4826C160.414 63.6902 160.362 63.8432 160.322 63.9298C160.301 63.9753 160.3 63.9667 160.327 63.9319C160.337 63.9199 160.47 63.7408 160.754 63.6699L161.239 65.6101C161.602 65.5192 161.816 65.2751 161.904 65.1622C162.01 65.0264 162.086 64.8809 162.14 64.7627C162.251 64.5218 162.338 64.2398 162.405 63.9774C162.537 63.4602 162.636 62.8322 162.636 62.4H160.636ZM160.872 63.6477C159.544 63.8137 158.595 63.96 157.716 63.96V65.96C158.757 65.96 159.888 65.7863 161.12 65.6323L160.872 63.6477ZM157.716 63.96C156.695 63.96 155.853 63.8148 155.098 63.5402L154.415 65.4198C155.419 65.7852 156.497 65.96 157.716 65.96V63.96ZM155.726 64.2375C154.482 59.2599 150.64 52.1779 146.756 47L145.156 48.2C148.953 53.2621 152.63 60.1001 153.786 64.7225L155.726 64.2375ZM145.792 46.6136C144.355 46.8531 142.857 47.0893 141.446 47.2461L141.667 49.2339C143.135 49.0707 144.678 48.8269 146.121 48.5864L145.792 46.6136ZM141.627 47.2425C138.325 47.0066 134.728 46.3817 131.629 44.7188L130.683 46.4812C134.144 48.3383 138.068 48.9934 141.485 49.2375L141.627 47.2425ZM130.156 45.6V46.4H132.156V45.6H130.156ZM130.156 46.3904L129.996 63.1104L131.996 63.1296L132.156 46.4096L130.156 46.3904ZM130.029 62.8655C129.928 63.2501 129.73 63.4243 129.381 63.5445C128.951 63.6923 128.373 63.72 127.636 63.72V65.72C128.339 65.72 129.241 65.7077 130.032 65.4355C130.903 65.1357 131.665 64.5099 131.963 63.3745L130.029 62.8655ZM127.636 63.72H124.676V65.72H127.636V63.72ZM124.676 63.72C124.668 63.72 124.665 63.7197 124.655 63.7137C124.64 63.7044 124.604 63.6772 124.56 63.6135C124.466 63.4764 124.396 63.2583 124.396 63.04H122.396C122.396 63.6217 122.566 64.2436 122.912 64.7465C123.266 65.2613 123.864 65.72 124.676 65.72V63.72ZM124.396 63.04C124.396 62.9559 124.397 62.928 124.4 62.9004C124.402 62.8803 124.407 62.8493 124.425 62.7962L122.528 62.1638C122.395 62.5601 122.396 62.8508 122.396 63.04H124.396ZM124.476 62.4951C124.556 57.2371 124.716 52.0087 124.716 46.72H122.716C122.716 51.9913 122.557 57.1629 122.476 62.4649L124.476 62.4951ZM124.716 46.72C124.716 44.0978 124.796 41.4926 125.032 39.0563L123.041 38.8637C122.797 41.3874 122.716 44.0622 122.716 46.72H124.716ZM124.857 38.3889C123.634 36.6307 123.196 35.3116 123.196 34.32H121.196C121.196 35.8884 121.878 37.6093 123.215 39.5311L124.857 38.3889ZM123.196 34.32C123.196 33.7007 123.382 33.2175 123.714 32.8329C124.056 32.4359 124.609 32.0813 125.436 31.84L124.876 29.92C123.784 30.2387 122.857 30.7641 122.199 31.5271C121.53 32.3025 121.196 33.2593 121.196 34.32H123.196ZM126.137 31.0742C127.717 23.0951 130.469 16.5381 134.051 11.9996C137.624 7.4737 141.978 5 146.836 5V3C141.215 3 136.329 5.8863 132.481 10.7604C128.644 15.6219 125.795 22.5049 124.175 30.6857L126.137 31.0742ZM146.836 5C149.778 5 152.06 6.07023 153.874 7.90232C155.715 9.76104 157.104 12.4389 158.133 15.6733C160.195 22.1499 160.716 30.5398 160.796 38.0906L162.796 38.0694C162.716 30.5002 162.198 21.8501 160.039 15.0667C158.958 11.671 157.443 8.66395 155.296 6.49518C153.122 4.29977 150.334 3 146.836 3V5ZM162.338 38.9203C163.568 38.1268 164.513 37.4756 165.147 36.8536C165.815 36.198 166.236 35.4767 166.236 34.56H164.236C164.236 34.7633 164.178 35.002 163.746 35.4264C163.279 35.8844 162.504 36.4332 161.254 37.2397L162.338 38.9203ZM166.236 34.56C166.236 34.3107 166.24 34.0093 166.105 33.6038L164.208 34.2362C164.224 34.2864 164.229 34.3137 164.231 34.3395C164.235 34.3809 164.236 34.4294 164.236 34.56H166.236ZM165.156 34.92C165.909 34.92 166.275 35.1149 166.446 35.2734C166.611 35.4257 166.716 35.6563 166.716 36H168.716C168.716 35.2237 168.462 34.4143 167.806 33.8066C167.157 33.2051 166.243 32.92 165.156 32.92V34.92ZM166.716 36C166.716 36.8071 166.134 37.9765 165.036 38.8L166.236 40.4C167.698 39.3035 168.716 37.5929 168.716 36H166.716ZM165.036 38.8C163.744 39.7691 162.518 40.6866 161.306 41.3684L162.287 43.1116C163.634 42.3534 164.968 41.3509 166.236 40.4L165.036 38.8ZM160.797 42.2122C160.717 45.084 160.636 47.6623 160.636 49.84H162.636C162.636 47.6977 162.716 45.156 162.796 42.2678L160.797 42.2122ZM146.276 8.76C142.889 8.76 139.888 11.4251 137.496 15.283C135.066 19.2023 133.073 24.642 131.777 30.8353L133.735 31.2447C135 25.198 136.926 19.9977 139.196 16.337C141.504 12.6149 143.984 10.76 146.276 10.76V8.76ZM132.615 32.0299C133.185 32.1114 133.678 32.1833 134.162 32.3215L134.711 30.3985C134.075 30.2167 133.448 30.1286 132.898 30.05L132.615 32.0299ZM134.036 32.2765C138.237 34.1098 143.4 38.3815 148.152 44.0055L149.68 42.7145C144.833 36.9785 139.435 32.4502 134.836 30.4435L134.036 32.2765ZM149.141 44.3344C151.241 43.8497 153.378 43.2762 155.448 42.4485L154.705 40.5915C152.774 41.3638 150.751 41.9103 148.691 42.3856L149.141 44.3344ZM156.076 41.5545C156.155 39.2669 156.316 36.5025 156.316 33.68H154.316C154.316 36.4575 154.158 39.1331 154.077 41.4855L156.076 41.5545ZM156.316 33.68C156.316 28.0989 155.938 22.0034 154.577 17.2736C153.898 14.9098 152.95 12.8052 151.614 11.2759C150.252 9.71637 148.484 8.76 146.276 8.76V10.76C147.828 10.76 149.07 11.4036 150.108 12.5916C151.172 13.8098 152.015 15.6002 152.655 17.8264C153.935 22.2765 154.316 28.1411 154.316 33.68H156.316ZM130.966 35.4586C130.727 37.1319 130.48 38.8588 130.397 40.6746L132.395 40.7654C132.473 39.0612 132.705 37.4281 132.946 35.7414L130.966 35.4586ZM130.815 41.5337C134.39 44.0872 138.691 45.08 143.076 45.08V43.08C138.981 43.08 135.123 42.1528 131.977 39.9063L130.815 41.5337ZM143.825 43.4174C140.119 39.2279 135.964 35.7671 132.246 34.6428L131.667 36.5572C134.828 37.5129 138.673 40.6121 142.327 44.7426L143.825 43.4174ZM155.596 49.12C155.596 48.6095 155.672 47.2893 155.832 45.5305L153.84 45.3495C153.68 47.1107 153.596 48.5105 153.596 49.12H155.596ZM154.5 44.4983C153.419 44.8844 152.33 45.1961 151.139 45.5138L151.654 47.4462C152.863 47.1239 154.014 46.7956 155.173 46.3817L154.5 44.4983ZM150.607 47.0939C151.702 48.5026 152.725 49.9965 153.758 51.585L155.435 50.495C154.387 48.8835 153.33 47.3374 152.186 45.8661L150.607 47.0939ZM155.596 51.04V49.12H153.596V51.04H155.596ZM173.554 33.28V32.28H173.391L173.238 32.3313L173.554 33.28ZM174.914 35.04L175.914 35.0539V35.04H174.914ZM171.154 53.6L170.161 53.4786L170.154 53.5391V53.6H171.154ZM177.394 53.44L177.728 54.3824L177.747 54.3758L177.765 54.3685L177.394 53.44ZM171.074 35.04L170.196 34.5611L170.193 34.5672L171.074 35.04ZM173.554 34.28C173.787 34.28 173.886 34.3088 173.911 34.3186C173.913 34.3195 173.874 34.2989 173.847 34.258C173.834 34.238 173.859 34.2648 173.881 34.4095C173.903 34.5541 173.914 34.7531 173.914 35.04H175.914C175.914 34.7269 175.904 34.4059 175.859 34.108C175.813 33.8101 175.723 33.472 175.52 33.162C175.054 32.4497 174.279 32.28 173.554 32.28V34.28ZM173.914 35.0261C173.876 37.7478 173.319 39.4821 172.556 42.0223C171.786 44.5844 170.85 47.8432 170.161 53.4786L172.146 53.7214C172.817 48.2368 173.721 45.0956 174.471 42.5977C175.228 40.0779 175.871 38.0922 175.914 35.0539L173.914 35.0261ZM170.154 53.6V53.92H172.154V53.6H170.154ZM170.154 53.92C170.154 54.4533 170.299 54.9838 170.571 55.4091C170.83 55.8136 171.321 56.28 172.034 56.28V54.28C172.145 54.28 172.222 54.3186 172.255 54.3413C172.284 54.3609 172.279 54.3663 172.256 54.3309C172.208 54.2562 172.154 54.1067 172.154 53.92H170.154ZM172.034 56.28C172.814 56.28 173.708 55.9595 174.57 55.6206C175.502 55.2538 176.507 54.8157 177.728 54.3824L177.059 52.4976C175.8 52.9443 174.685 53.4262 173.838 53.7594C172.92 54.1205 172.374 54.28 172.034 54.28V56.28ZM177.765 54.3685C178.08 54.2427 178.417 54.0972 178.745 53.9561C179.078 53.8128 179.404 53.6729 179.715 53.5485C180.028 53.4235 180.307 53.3217 180.544 53.2521C180.795 53.1785 180.937 53.16 180.994 53.16V51.16C180.651 51.16 180.293 51.2415 179.981 51.3329C179.656 51.4283 179.31 51.5565 178.972 51.6915C178.633 51.8271 178.284 51.9772 177.955 52.1189C177.62 52.2628 177.308 52.3973 177.022 52.5115L177.765 54.3685ZM180.994 53.16C180.947 53.16 180.886 53.1488 180.826 53.1194C180.768 53.0916 180.734 53.0591 180.721 53.0444C180.706 53.0267 180.737 53.0569 180.776 53.1873C180.854 53.4463 180.874 53.79 180.874 54H182.874C182.874 53.73 182.854 53.1537 182.692 52.6127C182.611 52.3431 182.472 52.0033 182.216 51.7156C181.935 51.3996 181.52 51.16 180.994 51.16V53.16ZM180.874 54C180.874 54.5919 180.61 55.3666 180.045 56.25C179.49 57.1179 178.696 58.0097 177.768 58.8148C175.869 60.4633 173.638 61.56 172.034 61.56V63.56C174.349 63.56 177.038 62.0967 179.079 60.3252C180.122 59.4203 181.052 58.3871 181.73 57.3275C182.398 56.2834 182.874 55.1281 182.874 54H180.874ZM172.034 61.56C170.862 61.56 170.013 61.2785 169.38 60.8535C168.742 60.4252 168.256 59.8056 167.889 59.0249C167.139 57.4274 166.954 55.298 166.954 53.28H164.954C164.954 55.342 165.129 57.8526 166.079 59.8751C166.562 60.9044 167.261 61.8398 168.265 62.514C169.274 63.1915 170.525 63.56 172.034 63.56V61.56ZM166.954 53.28C166.954 50.4315 167.758 46.8058 168.808 43.4376C169.856 40.0789 171.113 37.0815 171.955 35.5128L170.193 34.5672C169.274 36.2785 167.972 39.4011 166.899 42.8424C165.829 46.2742 164.954 50.1285 164.954 53.28H166.954ZM171.952 35.5189C172.136 35.1806 172.303 34.9885 172.533 34.8252C172.79 34.6422 173.178 34.4595 173.87 34.2287L173.238 32.3313C172.49 32.5805 171.877 32.8378 171.375 33.1948C170.844 33.5715 170.491 34.0194 170.196 34.5611L171.952 35.5189ZM191.601 33.28V32.28H191.438L191.284 32.3313L191.601 33.28ZM192.961 35.04L193.961 35.0539V35.04H192.961ZM189.201 53.6L188.208 53.4786L188.201 53.5391V53.6H189.201ZM195.441 53.44L195.775 54.3824L195.794 54.3758L195.812 54.3685L195.441 53.44ZM189.121 35.04L188.243 34.5611L188.239 34.5672L189.121 35.04ZM191.601 34.28C191.834 34.28 191.932 34.3088 191.958 34.3186C191.96 34.3195 191.921 34.2989 191.894 34.258C191.881 34.238 191.906 34.2648 191.928 34.4095C191.95 34.5541 191.961 34.7531 191.961 35.04H193.961C193.961 34.7269 193.951 34.4059 193.905 34.108C193.86 33.8101 193.77 33.472 193.567 33.162C193.1 32.4497 192.326 32.28 191.601 32.28V34.28ZM191.961 35.0261C191.923 37.7478 191.366 39.4821 190.603 42.0223C189.833 44.5844 188.897 47.8432 188.208 53.4786L190.193 53.7214C190.864 48.2368 191.768 45.0956 192.518 42.5977C193.275 40.0779 193.918 38.0922 193.961 35.0539L191.961 35.0261ZM188.201 53.6V53.92H190.201V53.6H188.201ZM188.201 53.92C188.201 54.4533 188.346 54.9838 188.618 55.4091C188.877 55.8136 189.367 56.28 190.081 56.28V54.28C190.191 54.28 190.269 54.3186 190.302 54.3413C190.331 54.3609 190.326 54.3663 190.303 54.3309C190.255 54.2562 190.201 54.1067 190.201 53.92H188.201ZM190.081 56.28C190.861 56.28 191.755 55.9595 192.617 55.6206C193.549 55.2538 194.554 54.8157 195.775 54.3824L195.106 52.4976C193.847 52.9443 192.732 53.4262 191.885 53.7594C190.966 54.1205 190.421 54.28 190.081 54.28V56.28ZM195.812 54.3685C196.126 54.2427 196.464 54.0972 196.792 53.9561C197.125 53.8128 197.451 53.6729 197.762 53.5485C198.074 53.4235 198.354 53.3217 198.591 53.2521C198.842 53.1785 198.983 53.16 199.041 53.16V51.16C198.698 51.16 198.34 51.2415 198.028 51.3329C197.703 51.4283 197.357 51.5565 197.019 51.6915C196.68 51.8271 196.331 51.9772 196.002 52.1189C195.667 52.2628 195.355 52.3973 195.069 52.5115L195.812 54.3685ZM199.041 53.16C198.994 53.16 198.933 53.1488 198.872 53.1194C198.815 53.0916 198.781 53.0591 198.768 53.0444C198.752 53.0267 198.784 53.0569 198.823 53.1873C198.9 53.4463 198.921 53.79 198.921 54H200.921C200.921 53.73 200.901 53.1537 200.738 52.6127C200.658 52.3431 200.519 52.0033 200.263 51.7156C199.982 51.3996 199.567 51.16 199.041 51.16V53.16ZM198.921 54C198.921 54.5919 198.657 55.3666 198.092 56.25C197.537 57.1179 196.743 58.0097 195.815 58.8148C193.916 60.4633 191.685 61.56 190.081 61.56V63.56C192.396 63.56 195.085 62.0967 197.126 60.3252C198.169 59.4203 199.099 58.3871 199.777 57.3275C200.444 56.2834 200.921 55.1281 200.921 54H198.921ZM190.081 61.56C188.909 61.56 188.06 61.2785 187.427 60.8535C186.789 60.4252 186.302 59.8056 185.936 59.0249C185.186 57.4274 185.001 55.298 185.001 53.28H183.001C183.001 55.342 183.176 57.8526 184.125 59.8751C184.609 60.9044 185.308 61.8398 186.312 62.514C187.321 63.1915 188.572 63.56 190.081 63.56V61.56ZM185.001 53.28C185.001 50.4315 185.805 46.8058 186.855 43.4376C187.902 40.0789 189.16 37.0815 190.002 35.5128L188.239 34.5672C187.321 36.2785 186.019 39.4011 184.946 42.8424C183.876 46.2742 183.001 50.1285 183.001 53.28H185.001ZM189.999 35.5189C190.183 35.1806 190.35 34.9885 190.58 34.8252C190.837 34.6422 191.225 34.4595 191.917 34.2287L191.284 32.3313C190.537 32.5805 189.924 32.8378 189.421 33.1948C188.891 33.5715 188.538 34.0194 188.243 34.5611L189.999 35.5189ZM246.448 54.24L247.078 53.4639L246.599 53.0744L246.036 53.3286L246.448 54.24ZM247.808 58.96L248.324 59.8163L248.678 59.6031L248.778 59.2025L247.808 58.96ZM237.168 15.92L237.84 16.6599L239.754 14.92H237.168V15.92ZM245.817 55.0161C246.926 55.9175 247.128 56.6139 247.128 57.12H249.128C249.128 55.8661 248.529 54.6425 247.078 53.4639L245.817 55.0161ZM247.128 57.12C247.128 57.5318 247.006 58.0424 246.837 58.7175L248.778 59.2025C248.929 58.5976 249.128 57.8282 249.128 57.12H247.128ZM247.291 58.1037C242.381 61.0651 235.118 63.8 226.528 63.8V65.8C235.537 65.8 243.154 62.9349 248.324 59.8163L247.291 58.1037ZM226.528 63.8C215.416 63.8 202.888 53.6237 202.888 37.2H200.888C200.888 54.6963 214.279 65.8 226.528 65.8V63.8ZM202.888 37.2C202.888 31.1061 205.311 23.1604 210.268 16.7519C215.204 10.371 222.611 5.56 232.608 5.56V3.56C221.884 3.56 213.931 8.74904 208.687 15.5281C203.464 22.2796 200.888 30.6539 200.888 37.2H202.888ZM232.608 5.56C237.987 5.56 242.02 7.04814 244.699 9.52432C247.369 11.9927 248.808 15.5474 248.808 19.92H250.808C250.808 15.0926 249.206 10.9673 246.056 8.05568C242.915 5.15185 238.348 3.56 232.608 3.56V5.56ZM248.808 19.92C248.808 23.4717 247.454 25.914 245.44 27.4931C243.393 29.0987 240.571 29.88 237.568 29.88V31.88C240.884 31.88 244.182 31.0213 246.675 29.0669C249.201 27.086 250.808 24.0483 250.808 19.92H248.808ZM237.568 29.88C233.082 29.88 229.928 26.6529 229.928 23.12H227.928C227.928 27.9071 232.133 31.88 237.568 31.88V29.88ZM229.928 23.12C229.928 21.5669 230.776 20.0215 232.136 18.8329C233.495 17.6446 235.248 16.92 236.848 16.92V14.92C234.687 14.92 232.48 15.8754 230.819 17.3271C229.159 18.7785 227.928 20.8331 227.928 23.12H229.928ZM236.848 16.92H237.168V14.92H236.848V16.92ZM236.495 15.1801C235.173 16.3816 234.083 17.4591 233.335 18.6321C232.561 19.8444 232.168 21.1314 232.168 22.72H234.168C234.168 21.5086 234.454 20.5956 235.021 19.7079C235.612 18.7809 236.522 17.8584 237.84 16.6599L236.495 15.1801ZM232.168 22.72C232.168 23.6445 232.491 24.8505 233.287 25.8447C234.113 26.8771 235.418 27.64 237.248 27.64V25.64C236.037 25.64 235.302 25.1629 234.848 24.5953C234.364 23.9895 234.168 23.2355 234.168 22.72H232.168ZM237.248 27.64C238.96 27.64 241.176 27.2809 242.996 26.086C244.878 24.8512 246.248 22.7769 246.248 19.6H244.248C244.248 22.1031 243.217 23.5488 241.899 24.4139C240.52 25.3191 238.735 25.64 237.248 25.64V27.64ZM246.248 19.6C246.248 15.4408 244.723 12.6563 242.133 10.9717C239.626 9.34138 236.267 8.84 232.768 8.84V10.84C236.148 10.84 239.029 11.3386 241.042 12.6483C242.972 13.9037 244.248 15.9992 244.248 19.6H246.248ZM232.768 8.84C225.874 8.84 219.579 12.6181 215.04 17.8766C210.503 23.1343 207.608 29.9987 207.608 36.4H209.608C209.608 30.5613 212.272 24.1457 216.555 19.1833C220.836 14.2219 226.621 10.84 232.768 10.84V8.84ZM207.608 36.4C207.608 50.4122 218.555 59 228.528 59V57C219.62 57 209.608 49.2678 209.608 36.4H207.608ZM228.528 59C236.365 59 241.785 57.4431 246.859 55.1514L246.036 53.3286C241.19 55.5169 236.05 57 228.528 57V59ZM253.512 58.88H254.512V58.603L254.369 58.3655L253.512 58.88ZM270.072 34.4L270.473 33.4838L270.452 33.4748L270.431 33.4667L270.072 34.4ZM270.392 37.04L270.281 36.0461L270.392 38.04V37.04ZM275.912 38.56L275.357 39.3921L275.369 39.3996L275.912 38.56ZM258.152 61.76L258.11 60.7609L257.421 60.7896L257.203 61.4438L258.152 61.76ZM255.912 64.32L255.119 64.9297L255.784 65.7938L256.588 65.0572L255.912 64.32ZM260.552 54.96L259.615 54.6099L259.111 55.96H260.552V54.96ZM266.472 37.76L266.229 36.7899L266.205 36.7959L266.181 36.8031L266.472 37.76ZM268.312 37.28L268.496 38.2629L268.188 36.2877L268.312 37.28ZM264.792 38.16L265.023 39.1328L265.055 39.1253L265.086 39.1158L264.792 38.16ZM255.432 52.72L254.474 53.0073L255.307 55.7851L256.363 53.0841L255.432 52.72ZM254.369 58.3655C252.296 54.9102 251.472 51.6467 251.472 48.64H249.472C249.472 52.0333 250.408 55.6498 252.654 59.3945L254.369 58.3655ZM251.472 48.64C251.472 40.6964 258.318 34.76 265.832 34.76V32.76C257.346 32.76 249.472 39.4636 249.472 48.64H251.472ZM265.832 34.76C267.513 34.76 268.822 34.9908 269.713 35.3333L270.431 33.4667C269.242 33.0092 267.671 32.76 265.832 32.76V34.76ZM269.671 35.3162C270.274 35.5801 270.686 35.8195 270.93 36.0131C271.051 36.1093 271.1 36.1701 271.112 36.1883C271.124 36.205 271.072 36.1368 271.072 36H273.072C273.072 35.2711 272.557 34.7511 272.174 34.4469C271.738 34.1005 271.149 33.7799 270.473 33.4838L269.671 35.3162ZM271.072 36C271.072 35.888 271.12 35.8076 271.143 35.7803C271.155 35.7661 271.135 35.7939 271.044 35.841C270.857 35.9373 270.566 36.0145 270.281 36.0461L270.502 38.0339C270.938 37.9855 271.487 37.8627 271.96 37.619C272.393 37.396 273.072 36.897 273.072 36H271.072ZM270.392 38.04H270.472V36.04H270.392V38.04ZM270.472 38.04C272.096 38.04 273.886 38.4114 275.357 39.392L276.467 37.7279C274.578 36.4686 272.368 36.04 270.472 36.04V38.04ZM275.369 39.3996C275.531 39.5044 275.756 39.7381 276.007 40.1489C276.251 40.5469 276.48 41.0497 276.679 41.6124C277.079 42.7472 277.312 44.014 277.312 44.96H279.312C279.312 43.746 279.025 42.2528 278.565 40.9476C278.333 40.2903 278.048 39.6531 277.714 39.106C277.387 38.5719 276.973 38.0556 276.455 37.7204L275.369 39.3996ZM277.312 44.96C277.312 49.4881 274.889 53.3192 271.227 56.104C267.557 58.8945 262.716 60.569 258.11 60.7609L258.194 62.7591C263.188 62.551 268.427 60.7455 272.437 57.696C276.455 54.6408 279.312 50.2719 279.312 44.96H277.312ZM257.203 61.4438C257.113 61.7137 256.914 62.0046 256.556 62.3717C256.18 62.7571 255.767 63.0961 255.236 63.5828L256.588 65.0572C257.017 64.6639 257.564 64.2029 257.988 63.7683C258.43 63.3154 258.871 62.7663 259.101 62.0762L257.203 61.4438ZM256.704 63.7103C255.151 61.691 254.512 59.9892 254.512 59.04H252.512C252.512 60.6508 253.473 62.789 255.119 64.9297L256.704 63.7103ZM254.512 59.04V58.88H252.512V59.04H254.512ZM270.632 40.92C268.043 40.92 266.001 42.503 264.298 44.8891C262.597 47.273 261.099 50.6387 259.615 54.6099L261.489 55.3101C262.964 51.3613 264.387 48.207 265.926 46.0509C267.463 43.897 268.981 42.92 270.632 42.92V40.92ZM260.552 55.96H261.592V53.96H260.552V55.96ZM261.592 55.96C264.007 55.96 267.276 54.6129 269.906 52.6166C272.527 50.6277 274.832 47.7488 274.832 44.48H272.832C272.832 46.8111 271.137 49.1723 268.697 51.0234C266.268 52.8671 263.417 53.96 261.592 53.96V55.96ZM274.832 44.48C274.832 43.3567 274.388 42.4122 273.561 41.7768C272.769 41.169 271.728 40.92 270.632 40.92V42.92C271.456 42.92 272.014 43.111 272.343 43.3631C272.635 43.5878 272.832 43.9233 272.832 44.48H274.832ZM266.714 38.7301C267.064 38.6427 267.417 38.5265 267.679 38.4478C267.963 38.3626 268.2 38.3018 268.436 38.2723L268.188 36.2877C267.784 36.3382 267.42 36.4374 267.105 36.5322C266.767 36.6335 266.52 36.7173 266.229 36.7899L266.714 38.7301ZM268.128 36.2971C266.802 36.5457 265.564 36.8761 264.498 37.2042L265.086 39.1158C266.099 38.8039 267.262 38.4943 268.496 38.2629L268.128 36.2971ZM264.56 37.1872C257.307 38.9143 254.112 45.0683 254.112 50.32H256.112C256.112 45.8116 258.837 40.6057 265.023 39.1328L264.56 37.1872ZM254.112 50.32C254.112 51.1864 254.198 52.0886 254.474 53.0073L256.39 52.4327C256.185 51.7514 256.112 51.0536 256.112 50.32H254.112ZM256.363 53.0841C258.074 48.7078 259.678 45.4002 261.375 43.0325C263.062 40.678 264.797 39.3135 266.762 38.7169L266.181 36.8031C263.667 37.5665 261.602 39.282 259.749 41.8675C257.906 44.4398 256.23 47.9322 254.501 52.3559L256.363 53.0841ZM268.712 36.2C268.652 36.2 268.505 36.1974 268.347 36.2236C268.166 36.2539 268.01 36.3131 267.865 36.3856L268.759 38.1744C268.77 38.1691 268.764 38.1727 268.746 38.1787C268.738 38.1818 268.726 38.1852 268.714 38.1885C268.701 38.1918 268.688 38.1944 268.676 38.1964C268.652 38.2004 268.638 38.2007 268.643 38.2005C268.646 38.2004 268.652 38.2002 268.664 38.2001C268.677 38.2 268.691 38.2 268.712 38.2V36.2ZM268.759 38.1744C268.77 38.1691 268.764 38.1727 268.746 38.1787C268.738 38.1818 268.726 38.1852 268.714 38.1885C268.701 38.1918 268.688 38.1944 268.676 38.1964C268.652 38.2004 268.638 38.2007 268.643 38.2005C268.646 38.2004 268.652 38.2002 268.664 38.2001C268.677 38.2 268.691 38.2 268.712 38.2V36.2C268.652 36.2 268.505 36.1974 268.347 36.2236C268.166 36.2539 268.01 36.3131 267.865 36.3856L268.759 38.1744ZM282.574 58.88H283.574V58.603L283.432 58.3655L282.574 58.88ZM299.134 34.4L299.535 33.4838L299.514 33.4748L299.493 33.4667L299.134 34.4ZM299.454 37.04L299.344 36.0461L299.454 38.04V37.04ZM304.974 38.56L304.42 39.3921L304.431 39.3996L304.974 38.56ZM287.214 61.76L287.173 60.7609L286.484 60.7896L286.266 61.4438L287.214 61.76ZM284.974 64.32L284.182 64.9297L284.846 65.7938L285.65 65.0572L284.974 64.32ZM289.614 54.96L288.678 54.6099L288.173 55.96H289.614V54.96ZM295.534 37.76L295.292 36.7899L295.268 36.7959L295.244 36.8031L295.534 37.76ZM297.374 37.28L297.559 38.2629L297.25 36.2877L297.374 37.28ZM293.854 38.16L294.086 39.1328L294.118 39.1253L294.148 39.1158L293.854 38.16ZM284.494 52.72L283.537 53.0073L284.37 55.7851L285.426 53.0841L284.494 52.72ZM283.432 58.3655C281.359 54.9102 280.534 51.6467 280.534 48.64H278.534C278.534 52.0333 279.47 55.6498 281.717 59.3945L283.432 58.3655ZM280.534 48.64C280.534 40.6964 287.38 34.76 294.894 34.76V32.76C286.408 32.76 278.534 39.4636 278.534 48.64H280.534ZM294.894 34.76C296.575 34.76 297.885 34.9908 298.775 35.3333L299.493 33.4667C298.304 33.0092 296.733 32.76 294.894 32.76V34.76ZM298.734 35.3162C299.337 35.5801 299.749 35.8195 299.992 36.0131C300.114 36.1093 300.162 36.1701 300.175 36.1883C300.186 36.205 300.134 36.1368 300.134 36H302.134C302.134 35.2711 301.619 34.7511 301.236 34.4469C300.8 34.1005 300.212 33.7799 299.535 33.4838L298.734 35.3162ZM300.134 36C300.134 35.888 300.183 35.8076 300.206 35.7803C300.217 35.7661 300.198 35.7939 300.106 35.841C299.919 35.9373 299.629 36.0145 299.344 36.0461L299.565 38.0339C300 37.9855 300.549 37.8627 301.022 37.619C301.455 37.396 302.134 36.897 302.134 36H300.134ZM299.454 38.04H299.534V36.04H299.454V38.04ZM299.534 38.04C301.159 38.04 302.949 38.4114 304.42 39.392L305.529 37.7279C303.64 36.4686 301.43 36.04 299.534 36.04V38.04ZM304.431 39.3996C304.593 39.5044 304.819 39.7381 305.07 40.1489C305.313 40.5469 305.543 41.0497 305.741 41.6124C306.141 42.7472 306.374 44.014 306.374 44.96H308.374C308.374 43.746 308.088 42.2528 307.628 40.9476C307.396 40.2903 307.111 39.6531 306.776 39.106C306.45 38.5719 306.036 38.0556 305.518 37.7204L304.431 39.3996ZM306.374 44.96C306.374 49.4881 303.951 53.3192 300.289 56.104C296.619 58.8945 291.778 60.569 287.173 60.7609L287.256 62.7591C292.25 62.551 297.489 60.7455 301.5 57.696C305.517 54.6408 308.374 50.2719 308.374 44.96H306.374ZM286.266 61.4438C286.176 61.7137 285.977 62.0046 285.619 62.3717C285.243 62.7571 284.83 63.0961 284.299 63.5828L285.65 65.0572C286.079 64.6639 286.626 64.2029 287.05 63.7683C287.492 63.3154 287.933 62.7663 288.163 62.0762L286.266 61.4438ZM285.767 63.7103C284.214 61.691 283.574 59.9892 283.574 59.04H281.574C281.574 60.6508 282.535 62.789 284.182 64.9297L285.767 63.7103ZM283.574 59.04V58.88H281.574V59.04H283.574ZM299.694 40.92C297.105 40.92 295.063 42.503 293.36 44.8891C291.659 47.273 290.162 50.6387 288.678 54.6099L290.551 55.3101C292.027 51.3613 293.45 48.207 294.988 46.0509C296.526 43.897 298.043 42.92 299.694 42.92V40.92ZM289.614 55.96H290.654V53.96H289.614V55.96ZM290.654 55.96C293.07 55.96 296.338 54.6129 298.969 52.6166C301.59 50.6277 303.894 47.7488 303.894 44.48H301.894C301.894 46.8111 300.199 49.1723 297.76 51.0234C295.33 52.8671 292.479 53.96 290.654 53.96V55.96ZM303.894 44.48C303.894 43.3567 303.451 42.4122 302.623 41.7768C301.832 41.169 300.79 40.92 299.694 40.92V42.92C300.519 42.92 301.077 43.111 301.405 43.3631C301.698 43.5878 301.894 43.9233 301.894 44.48H303.894ZM295.777 38.7301C296.127 38.6427 296.479 38.5265 296.742 38.4478C297.026 38.3626 297.262 38.3018 297.498 38.2723L297.25 36.2877C296.846 36.3382 296.483 36.4374 296.167 36.5322C295.829 36.6335 295.582 36.7173 295.292 36.7899L295.777 38.7301ZM297.19 36.2971C295.864 36.5457 294.627 36.8761 293.56 37.2042L294.148 39.1158C295.162 38.8039 296.324 38.4943 297.559 38.2629L297.19 36.2971ZM293.623 37.1872C286.369 38.9143 283.174 45.0683 283.174 50.32H285.174C285.174 45.8116 287.9 40.6057 294.086 39.1328L293.623 37.1872ZM283.174 50.32C283.174 51.1864 283.261 52.0886 283.537 53.0073L285.452 52.4327C285.248 51.7514 285.174 51.0536 285.174 50.32H283.174ZM285.426 53.0841C287.136 48.7078 288.741 45.4002 290.437 43.0325C292.124 40.678 293.859 39.3135 295.825 38.7169L295.244 36.8031C292.729 37.5665 290.664 39.282 288.812 41.8675C286.968 44.4398 285.292 47.9322 283.563 52.3559L285.426 53.0841ZM297.774 36.2C297.714 36.2 297.567 36.1974 297.41 36.2236C297.228 36.2539 297.072 36.3131 296.927 36.3856L297.822 38.1744C297.832 38.1691 297.827 38.1727 297.809 38.1787C297.8 38.1818 297.789 38.1852 297.776 38.1885C297.763 38.1918 297.751 38.1944 297.739 38.1964C297.715 38.2004 297.7 38.2007 297.705 38.2005C297.708 38.2004 297.714 38.2002 297.727 38.2001C297.739 38.2 297.753 38.2 297.774 38.2V36.2ZM297.822 38.1744C297.832 38.1691 297.827 38.1727 297.809 38.1787C297.8 38.1818 297.789 38.1852 297.776 38.1885C297.763 38.1918 297.751 38.1944 297.739 38.1964C297.715 38.2004 297.7 38.2007 297.705 38.2005C297.708 38.2004 297.714 38.2002 297.727 38.2001C297.739 38.2 297.753 38.2 297.774 38.2V36.2C297.714 36.2 297.567 36.1974 297.41 36.2236C297.228 36.2539 297.072 36.3131 296.927 36.3856L297.822 38.1744ZM316.757 33.28V32.28H316.595L316.441 32.3313L316.757 33.28ZM318.117 35.04L319.117 35.0539V35.04H318.117ZM314.357 53.6L313.364 53.4786L313.357 53.5391V53.6H314.357ZM320.597 53.44L320.931 54.3824L320.95 54.3758L320.968 54.3685L320.597 53.44ZM314.277 35.04L313.399 34.5611L313.396 34.5672L314.277 35.04ZM316.757 34.28C316.99 34.28 317.089 34.3088 317.114 34.3186C317.116 34.3195 317.077 34.2989 317.05 34.258C317.037 34.238 317.062 34.2648 317.085 34.4095C317.107 34.5541 317.117 34.7531 317.117 35.04H319.117C319.117 34.7269 319.107 34.4059 319.062 34.108C319.016 33.8101 318.926 33.472 318.723 33.162C318.257 32.4497 317.482 32.28 316.757 32.28V34.28ZM317.117 35.0261C317.079 37.7478 316.522 39.4821 315.759 42.0223C314.989 44.5844 314.053 47.8432 313.364 53.4786L315.349 53.7214C316.02 48.2368 316.924 45.0956 317.675 42.5977C318.432 40.0779 319.075 38.0922 319.117 35.0539L317.117 35.0261ZM313.357 53.6V53.92H315.357V53.6H313.357ZM313.357 53.92C313.357 54.4533 313.502 54.9838 313.775 55.4091C314.034 55.8136 314.524 56.28 315.237 56.28V54.28C315.348 54.28 315.425 54.3186 315.458 54.3413C315.487 54.3609 315.482 54.3663 315.459 54.3309C315.411 54.2562 315.357 54.1067 315.357 53.92H313.357ZM315.237 56.28C316.017 56.28 316.911 55.9595 317.773 55.6206C318.706 55.2538 319.71 54.8157 320.931 54.3824L320.262 52.4976C319.004 52.9443 317.888 53.4262 317.041 53.7594C316.123 54.1205 315.577 54.28 315.237 54.28V56.28ZM320.968 54.3685C321.283 54.2427 321.62 54.0972 321.948 53.9561C322.281 53.8128 322.607 53.6729 322.918 53.5485C323.231 53.4235 323.51 53.3217 323.747 53.2521C323.998 53.1785 324.14 53.16 324.197 53.16V51.16C323.854 51.16 323.496 51.2415 323.184 51.3329C322.859 51.4283 322.513 51.5565 322.175 51.6915C321.837 51.8271 321.487 51.9772 321.158 52.1189C320.823 52.2628 320.511 52.3973 320.225 52.5115L320.968 54.3685ZM324.197 53.16C324.15 53.16 324.089 53.1488 324.029 53.1194C323.971 53.0916 323.938 53.0591 323.924 53.0444C323.909 53.0267 323.94 53.0569 323.979 53.1873C324.057 53.4463 324.077 53.79 324.077 54H326.077C326.077 53.73 326.057 53.1537 325.895 52.6127C325.814 52.3431 325.675 52.0033 325.419 51.7156C325.138 51.3996 324.723 51.16 324.197 51.16V53.16ZM324.077 54C324.077 54.5919 323.813 55.3666 323.248 56.25C322.693 57.1179 321.899 58.0097 320.971 58.8148C319.072 60.4633 316.841 61.56 315.237 61.56V63.56C317.552 63.56 320.242 62.0967 322.282 60.3252C323.325 59.4203 324.256 58.3871 324.933 57.3275C325.601 56.2834 326.077 55.1281 326.077 54H324.077ZM315.237 61.56C314.065 61.56 313.216 61.2785 312.583 60.8535C311.945 60.4252 311.459 59.8056 311.092 59.0249C310.342 57.4274 310.157 55.298 310.157 53.28H308.157C308.157 55.342 308.332 57.8526 309.282 59.8751C309.765 60.9044 310.464 61.8398 311.468 62.514C312.478 63.1915 313.728 63.56 315.237 63.56V61.56ZM310.157 53.28C310.157 50.4315 310.961 46.8058 312.012 43.4376C313.059 40.0789 314.316 37.0815 315.158 35.5128L313.396 34.5672C312.477 36.2785 311.175 39.4011 310.102 42.8424C309.032 46.2742 308.157 50.1285 308.157 53.28H310.157ZM315.155 35.5189C315.339 35.1806 315.506 34.9885 315.736 34.8252C315.994 34.6422 316.381 34.4595 317.073 34.2287L316.441 32.3313C315.693 32.5805 315.08 32.8378 314.578 33.1948C314.048 33.5715 313.694 34.0194 313.399 34.5611L315.155 35.5189Z" fill="url(#paint1_linear_156_272)"/>
<path d="M76.2574 14.1777L69 26.9722C70.7257 25.7387 71.7104 25.0592 75.0221 24.9305C76.8095 22.5544 78.1525 21.7559 81.3135 21.5277C82.9143 19.5522 84.1009 18.8686 86.9118 18.6694C88.4795 16.9214 89.8584 16.1246 93.2427 15.1305L76.2574 14.1777Z" fill="#7DD3FC"/>
<path d="M85.0589 26.9722L81.3135 21.5277M76.2574 14.1777L69 26.9722C70.7257 25.7387 71.7104 25.0592 75.0221 24.9305C76.8095 22.5544 78.1525 21.7559 81.3135 21.5277M76.2574 14.1777L81.3135 21.5277M76.2574 14.1777L93.2427 15.1305C89.8584 16.1246 88.4795 16.9214 86.9118 18.6694C84.1009 18.8686 82.9143 19.5522 81.3135 21.5277" stroke="#0284C7" stroke-width="2"/>
<path d="M75.0221 24.9305L76.4118 14.45L86.9118 18.6694" stroke="#0284C7"/>
<path d="M93.7058 30.7833L100.191 14.3139L107.603 12" stroke="#0284C7" stroke-width="2"/>
<path d="M70.7843 36.5234C75.6798 35.4843 77.8292 35.8853 81.0509 37.6113C88.4155 35.4173 92.5346 35.4522 99.8984 37.6113C104.968 35.9635 107.412 35.6806 110.931 36.5234C111.39 48.723 109.76 54.5176 99.8984 61C92.538 59.7983 88.4112 60.2219 81.0509 61C70.9524 52.2805 69.9226 46.7535 70.7843 36.5234Z" fill="#16A34A" stroke="#86EFAC" stroke-width="2"/>
<path d="M71.4706 36.2671C76.2155 35.2645 78.2988 35.6514 81.4213 37.3166C88.5594 35.1999 92.5517 35.2336 99.689 37.3166C104.603 35.7268 106.971 35.4539 110.382 36.2671L99.689 26.4277H81.4213L71.4706 36.2671Z" fill="#FEF9C3" stroke="#FEFCE8" stroke-width="2"/>
<path d="M1.20406 5.36C4.32406 2.24 9.12406 0.559996 14.4841 0.559996C28.0841 0.559996 48.3241 10.56 48.3241 24.64C48.3241 33.84 35.4441 40.88 22.8841 40.88C22.0041 40.88 21.2841 40.88 18.9641 40.56C18.8841 41.84 18.8841 43.44 18.8841 45.28C18.8841 48.24 18.9641 51.92 19.2041 56.56C19.1241 58.56 17.2841 60.48 15.3641 61.04C14.4041 61.04 14.3241 60.64 13.5241 59.44C13.2841 58.32 13.0441 57.28 12.8841 56.08C12.8041 55.12 12.7241 53.68 12.7241 51.92L12.8841 41.04V39.28C8.64406 38 1.92406 33.92 1.92406 29.44C1.92406 25.92 4.56406 22.8 9.92406 21.28C10.3241 21.2 12.1641 20.64 12.5641 20.64C12.6441 18.48 12.6441 16.48 12.8041 14.88C12.9641 12.88 13.2841 10.96 15.3641 8.88C16.5641 9.68 17.7641 12.8 17.8441 14.08L18.4041 20.72C25.5241 20.72 27.3641 23.28 27.3641 25.76C27.3641 27.36 26.6441 28.4 24.9641 28.56C25.1241 28.16 25.2041 27.76 25.2041 27.44C25.2041 25.76 23.6041 25.2 18.5641 25.2L18.7241 35.04C20.0841 35.28 21.1241 35.36 22.5641 35.36C28.1641 35.36 41.6841 32.64 41.6841 25.04C41.6841 11.28 18.8841 5.84 11.5241 5.84C8.48406 5.84 4.56406 6 1.36406 6.24L1.20406 5.36ZM12.6441 25.2C11.6041 25.2 9.76406 25.28 8.88406 25.44C6.88406 25.84 5.04406 26.72 5.04406 28.4C5.04406 31.28 9.92406 32.72 12.6441 33.44V25.2ZM46.2122 35.12C45.0922 34.56 44.6122 33.92 44.6122 33.36C44.6122 31.44 49.6522 29.52 51.8122 29.52C61.4122 29.52 67.0122 33.76 67.0122 41.52C67.0122 44.16 65.5722 46.4 63.4922 48C65.5722 50.32 67.0122 53.36 68.6922 56.24C68.9322 56.64 69.0122 57.2 69.0122 57.6C69.0122 59.2 67.6522 60.4 66.6122 60.4C66.2922 60.4 66.0522 60.32 65.8122 60.08C65.5722 59.76 61.7322 54.32 58.6922 50.48C57.1722 50.88 55.6522 51.12 54.2122 51.12C51.6522 51.12 49.8922 49.36 49.8922 47.04C49.8922 45.52 52.3722 44.08 54.3722 44.08C56.3722 44.08 58.0522 44.48 59.4922 45.12C60.5322 43.84 61.2522 42.4 61.2522 41.28C61.2522 35.12 54.2922 34.08 50.5322 34.08C48.9322 34.08 47.4922 35.04 46.2122 35.12ZM48.4522 56.32C48.2922 57.6 47.4122 58.24 46.3722 58.24C44.6122 58.24 42.5322 56.72 42.5322 54.4C42.6122 47.52 43.3322 43.6 45.4922 36.96C45.8122 35.76 47.4122 35.2 48.7722 35.2C49.8922 35.2 50.8522 35.6 50.8522 36.56C49.2522 43.28 48.9322 49.76 48.4522 56.32ZM54.1322 48.8C54.8522 48.8 55.4922 48.64 56.5322 47.92C55.5722 46.96 55.3322 46.8 54.2922 46.8C53.3322 46.88 52.7722 47.2 52.7722 47.68C52.7722 48.48 53.5722 48.8 54.1322 48.8Z" fill="url(#paint2_linear_156_272)"/>
<path d="M1.20406 5.36L0.496956 4.65289L0.126465 5.02338L0.220193 5.53888L1.20406 5.36ZM18.9641 40.56L19.1007 39.5694L18.0332 39.4221L17.966 40.4976L18.9641 40.56ZM19.2041 56.56L20.2033 56.6L20.2051 56.5541L20.2027 56.5083L19.2041 56.56ZM15.3641 61.04V62.04H15.5069L15.6441 62L15.3641 61.04ZM13.5241 59.44L12.5463 59.6495L12.5862 59.836L12.692 59.9947L13.5241 59.44ZM12.8841 56.08L11.8875 56.163L11.8896 56.1877L11.8928 56.2122L12.8841 56.08ZM12.7241 51.92L11.7242 51.9053L11.7241 51.9126V51.92H12.7241ZM12.8841 41.04L13.884 41.0547L13.8841 41.0474V41.04H12.8841ZM12.8841 39.28H13.8841V38.5373L13.1731 38.3227L12.8841 39.28ZM9.92406 21.28L9.72795 20.2994L9.68923 20.3072L9.65124 20.3179L9.92406 21.28ZM12.5641 20.64V21.64H13.5277L13.5634 20.677L12.5641 20.64ZM12.8041 14.88L13.7991 14.9795L13.8001 14.9696L13.8009 14.9597L12.8041 14.88ZM15.3641 8.88L15.9188 8.04795L15.2366 7.5932L14.657 8.17289L15.3641 8.88ZM17.8441 14.08L16.846 14.1424L16.8467 14.1532L16.8476 14.164L17.8441 14.08ZM18.4041 20.72L17.4076 20.804L17.4849 21.72H18.4041V20.72ZM24.9641 28.56L24.0356 28.1886L23.4267 29.7109L25.0589 29.5555L24.9641 28.56ZM18.5641 25.2V24.2H17.5477L17.5642 25.2163L18.5641 25.2ZM18.7241 35.04L17.7242 35.0563L17.7376 35.8814L18.5503 36.0248L18.7241 35.04ZM1.36406 6.24L0.380193 6.41888L0.541217 7.30452L1.43885 7.2372L1.36406 6.24ZM12.6441 25.2H13.6441V24.2H12.6441V25.2ZM8.88406 25.44L8.70518 24.4561L8.69655 24.4577L8.68795 24.4594L8.88406 25.44ZM12.6441 33.44L12.3882 34.4067L13.6441 34.7391V33.44H12.6441ZM1.91117 6.0671C4.79701 3.18127 9.31513 1.56 14.4841 1.56V-0.440004C8.933 -0.440004 3.85112 1.29873 0.496956 4.65289L1.91117 6.0671ZM14.4841 1.56C21.0767 1.56 29.354 3.99617 35.9709 8.16602C42.6143 12.3525 47.3241 18.1082 47.3241 24.64H49.3241C49.3241 17.0918 43.9138 10.8074 37.0372 6.47397C30.1342 2.12382 21.4914 -0.440004 14.4841 -0.440004V1.56ZM47.3241 24.64C47.3241 28.7385 44.4448 32.5304 39.7949 35.3554C35.1718 38.1639 28.9936 39.88 22.8841 39.88V41.88C29.3345 41.88 35.8763 40.0761 40.8333 37.0646C45.7633 34.0696 49.3241 29.7415 49.3241 24.64H47.3241ZM22.8841 39.88C22.0502 39.88 21.3759 39.8832 19.1007 39.5694L18.8274 41.5506C21.1923 41.8768 21.9579 41.88 22.8841 41.88V39.88ZM17.966 40.4976C17.8836 41.8157 17.8841 43.4513 17.8841 45.28H19.8841C19.8841 43.4287 19.8845 41.8643 19.9621 40.6224L17.966 40.4976ZM17.8841 45.28C17.8841 48.2584 17.9646 51.9557 18.2054 56.6117L20.2027 56.5083C19.9636 51.8843 19.8841 48.2216 19.8841 45.28H17.8841ZM18.2049 56.52C18.1764 57.231 17.8267 57.9996 17.2261 58.6762C16.6274 59.3508 15.8445 59.8582 15.0841 60.08L15.6441 62C16.8036 61.6618 17.9007 60.9292 18.722 60.0038C19.5415 59.0804 20.1517 57.889 20.2033 56.6L18.2049 56.52ZM15.3641 60.04C15.1866 60.04 15.1297 60.0204 15.1252 60.0187C15.1244 60.0184 15.1255 60.0188 15.1277 60.0199C15.13 60.0211 15.1317 60.0222 15.1324 60.0227C15.1343 60.0239 15.1258 60.0186 15.1055 59.9975C15.0551 59.945 14.9832 59.8509 14.8508 59.6486C14.7407 59.4804 14.5512 59.178 14.3561 58.8853L12.692 59.9947C12.8969 60.302 13.0175 60.4996 13.1774 60.7439C13.3149 60.9541 13.473 61.185 13.6627 61.3825C13.8698 61.5983 14.1202 61.7816 14.4429 61.8988C14.7485 62.0096 15.0615 62.04 15.3641 62.04V60.04ZM14.5019 59.2305C14.2579 58.0919 14.0288 57.0991 13.8753 55.9478L11.8928 56.2122C12.0593 57.4609 12.3102 58.5481 12.5463 59.6495L14.5019 59.2305ZM13.8806 55.997C13.8028 55.0629 13.7241 53.6506 13.7241 51.92H11.7241C11.7241 53.7094 11.8054 55.1771 11.8875 56.163L13.8806 55.997ZM13.724 51.9347L13.884 41.0547L11.8842 41.0253L11.7242 51.9053L13.724 51.9347ZM13.8841 41.04V39.28H11.8841V41.04H13.8841ZM13.1731 38.3227C11.1676 37.7173 8.54041 36.4338 6.43267 34.7743C4.27547 33.0759 2.92406 31.1951 2.92406 29.44H0.924063C0.924063 32.1649 2.93265 34.5641 5.19546 36.3457C7.50772 38.1662 10.3605 39.5627 12.5951 40.2373L13.1731 38.3227ZM2.92406 29.44C2.92406 26.5359 5.07963 23.6932 10.1969 22.2421L9.65124 20.3179C4.04849 21.9068 0.924063 25.3041 0.924063 29.44H2.92406ZM10.1202 22.2606C10.362 22.2122 10.9926 22.0326 11.5028 21.8959C11.78 21.8217 12.0456 21.7531 12.262 21.7036C12.5211 21.6443 12.5975 21.64 12.5641 21.64V19.64C12.3306 19.64 12.027 19.7057 11.8161 19.7539C11.5625 19.8119 11.2681 19.8883 10.9853 19.9641C10.3755 20.1274 9.88609 20.2678 9.72795 20.2994L10.1202 22.2606ZM13.5634 20.677C13.6456 18.4582 13.6432 16.5387 13.7991 14.9795L11.809 14.7805C11.6449 16.4213 11.6426 18.5018 11.5647 20.603L13.5634 20.677ZM13.8009 14.9597C13.9525 13.0645 14.2338 11.4245 16.0712 9.5871L14.657 8.17289C12.3344 10.4955 11.9756 12.6955 11.8072 14.8003L13.8009 14.9597ZM14.8094 9.71205C14.9477 9.80425 15.1601 10.0219 15.4138 10.4036C15.6568 10.7692 15.8958 11.2212 16.1095 11.7045C16.5503 12.7011 16.8168 13.675 16.846 14.1424L18.8421 14.0176C18.7913 13.205 18.4178 11.9789 17.9386 10.8955C17.6924 10.3388 17.4013 9.7808 17.0794 9.29643C16.768 8.82805 16.3805 8.35574 15.9188 8.04795L14.8094 9.71205ZM16.8476 14.164L17.4076 20.804L19.4005 20.636L18.8405 13.996L16.8476 14.164ZM18.4041 21.72C21.8726 21.72 23.8712 22.3486 24.9786 23.1278C26.027 23.8656 26.3641 24.7996 26.3641 25.76H28.3641C28.3641 24.2404 27.7811 22.6544 26.1296 21.4922C24.5369 20.3714 22.0556 19.72 18.4041 19.72V21.72ZM26.3641 25.76C26.3641 26.4229 26.2139 26.8282 26.0179 27.0694C25.8369 27.2923 25.5128 27.5032 24.8693 27.5645L25.0589 29.5555C26.0953 29.4568 26.9713 29.0677 27.5702 28.3306C28.1542 27.6118 28.3641 26.6971 28.3641 25.76H26.3641ZM25.8925 28.9314C26.0907 28.436 26.2041 27.9096 26.2041 27.44H24.2041C24.2041 27.6104 24.1574 27.884 24.0356 28.1886L25.8925 28.9314ZM26.2041 27.44C26.2041 26.8535 26.0606 26.267 25.6592 25.7603C25.2699 25.269 24.7183 24.9547 24.0958 24.7432C22.89 24.3334 21.0744 24.2 18.5641 24.2V26.2C21.0937 26.2 22.5982 26.3466 23.4523 26.6368C23.8598 26.7753 24.0232 26.916 24.0915 27.0022C24.1475 27.073 24.2041 27.1864 24.2041 27.44H26.2041ZM17.5642 25.2163L17.7242 35.0563L19.7239 35.0237L19.5639 25.1837L17.5642 25.2163ZM18.5503 36.0248C19.9747 36.2762 21.0735 36.36 22.5641 36.36V34.36C21.1747 34.36 20.1934 34.2838 18.8978 34.0552L18.5503 36.0248ZM22.5641 36.36C25.477 36.36 30.3846 35.6607 34.5951 33.9786C36.7022 33.1368 38.6989 32.0238 40.1829 30.5741C41.6818 29.1097 42.6841 27.2705 42.6841 25.04H40.6841C40.6841 26.6095 39.9964 27.9603 38.7853 29.1434C37.5592 30.3412 35.826 31.3332 33.8531 32.1214C29.9035 33.6992 25.2511 34.36 22.5641 34.36V36.36ZM42.6841 25.04C42.6841 17.5316 36.4714 12.4838 29.7859 9.37333C23.0425 6.23591 15.3591 4.84 11.5241 4.84V6.84C15.049 6.84 22.4456 8.16409 28.9422 11.1867C35.4968 14.2362 40.6841 18.7884 40.6841 25.04H42.6841ZM11.5241 4.84C8.4561 4.84 4.51097 5.00117 1.28927 5.2428L1.43885 7.2372C4.61715 6.99882 8.51202 6.84 11.5241 6.84V4.84ZM2.34793 6.06111L2.18793 5.18111L0.220193 5.53888L0.380193 6.41888L2.34793 6.06111ZM12.6441 24.2C11.596 24.2 9.67958 24.279 8.70518 24.4561L9.06295 26.4239C9.84855 26.281 11.6121 26.2 12.6441 26.2V24.2ZM8.68795 24.4594C7.62798 24.6714 6.5209 25.0255 5.65399 25.6116C4.76471 26.2128 4.04406 27.1269 4.04406 28.4H6.04406C6.04406 27.9931 6.24341 27.6272 6.77414 27.2684C7.32723 26.8945 8.14015 26.6086 9.08018 26.4206L8.68795 24.4594ZM4.04406 28.4C4.04406 30.4625 5.7758 31.7932 7.36325 32.6175C9.03162 33.4838 11.0288 34.0469 12.3882 34.4067L12.9 32.4733C11.5394 32.1131 9.73651 31.5962 8.28488 30.8425C6.75232 30.0468 6.04406 29.2175 6.04406 28.4H4.04406ZM13.6441 33.44V25.2H11.6441V33.44H13.6441ZM46.2122 35.12L45.765 36.0144L46.0058 36.1348L46.2746 36.1181L46.2122 35.12ZM63.4922 48L62.8825 47.2074L62.0279 47.8648L62.7476 48.6675L63.4922 48ZM68.6922 56.24L67.8283 56.7439L67.8347 56.7545L68.6922 56.24ZM65.8122 60.08L65.0122 60.68L65.0548 60.7369L65.1051 60.7871L65.8122 60.08ZM58.6922 50.48L59.4762 49.8593L59.0702 49.3465L58.4377 49.5129L58.6922 50.48ZM59.4922 45.12L59.086 46.0338L59.7856 46.3447L60.2683 45.7506L59.4922 45.12ZM48.4522 56.32L49.4445 56.444L49.4476 56.4186L49.4495 56.393L48.4522 56.32ZM42.5322 54.4L41.5322 54.3884V54.4H42.5322ZM45.4922 36.96L46.4431 37.2693L46.4515 37.2437L46.4584 37.2177L45.4922 36.96ZM50.8522 36.56L51.825 36.7916L51.8522 36.6774V36.56H50.8522ZM56.5322 47.92L57.1014 48.7422L58.0866 48.0602L57.2393 47.2129L56.5322 47.92ZM54.2922 46.8V45.8H54.2506L54.2091 45.8035L54.2922 46.8ZM46.6594 34.2256C46.1768 33.9843 45.8966 33.7567 45.7479 33.5851C45.6023 33.4171 45.6122 33.3408 45.6122 33.36H43.6122C43.6122 34.5167 44.5594 35.4116 45.765 36.0144L46.6594 34.2256ZM45.6122 33.36C45.6122 33.3164 45.6578 33.0885 46.0978 32.6974C46.5061 32.3344 47.1106 31.9624 47.828 31.6248C49.2849 30.9392 50.9339 30.52 51.8122 30.52V28.52C50.5305 28.52 48.5794 29.0608 46.9764 29.8152C46.1638 30.1976 45.3732 30.6656 44.7691 31.2026C44.1965 31.7115 43.6122 32.4436 43.6122 33.36H45.6122ZM51.8122 30.52C56.4836 30.52 60.0348 31.554 62.3968 33.3982C64.722 35.2136 66.0122 37.9048 66.0122 41.52H68.0122C68.0122 37.3752 66.5024 34.0664 63.6276 31.8218C60.7896 29.606 56.7407 28.52 51.8122 28.52V30.52ZM66.0122 41.52C66.0122 43.7663 64.7908 45.7394 62.8825 47.2074L64.1019 48.7926C66.3535 47.0606 68.0122 44.5537 68.0122 41.52H66.0122ZM62.7476 48.6675C64.7371 50.8866 66.0853 53.7557 67.8284 56.7439L69.556 55.7361C67.9391 52.9643 66.4073 49.7534 64.2368 47.3325L62.7476 48.6675ZM67.8347 56.7545C67.8789 56.8282 67.9275 56.9526 67.9632 57.124C67.9979 57.2902 68.0122 57.4614 68.0122 57.6H70.0122C70.0122 57.1189 69.9236 56.3488 69.5497 55.7255L67.8347 56.7545ZM68.0122 57.6C68.0122 58.1102 67.795 58.5731 67.4736 58.9151C67.1318 59.2787 66.7785 59.4 66.6122 59.4V61.4C67.4858 61.4 68.3326 60.9213 68.9308 60.2849C69.5494 59.6269 70.0122 58.6898 70.0122 57.6H68.0122ZM66.6122 59.4C66.5357 59.4 66.5249 59.3904 66.5412 59.3967C66.5482 59.3994 66.5525 59.4021 66.552 59.4018C66.5508 59.401 66.5399 59.3935 66.5193 59.3729L65.1051 60.7871C65.3076 60.9896 65.5425 61.1554 65.8232 61.2633C66.0994 61.3696 66.3687 61.4 66.6122 61.4V59.4ZM66.6122 59.48C66.4104 59.211 62.5211 53.7054 59.4762 49.8593L57.9081 51.1007C60.9433 54.9346 64.7339 60.309 65.0122 60.68L66.6122 59.48ZM58.4377 49.5129C56.9773 49.8973 55.545 50.12 54.2122 50.12V52.12C55.7594 52.12 57.3671 51.8627 58.9467 51.4471L58.4377 49.5129ZM54.2122 50.12C52.1661 50.12 50.8922 48.7701 50.8922 47.04H48.8922C48.8922 49.9499 51.1382 52.12 54.2122 52.12V50.12ZM50.8922 47.04C50.8922 46.8128 51.1276 46.334 51.9165 45.8353C52.6482 45.3727 53.5853 45.08 54.3722 45.08V43.08C53.159 43.08 51.8562 43.5073 50.8478 44.1447C49.8967 44.746 48.8922 45.7472 48.8922 47.04H50.8922ZM54.3722 45.08C56.2329 45.08 57.7744 45.4509 59.086 46.0338L59.8983 44.2062C58.3299 43.5091 56.5115 43.08 54.3722 43.08V45.08ZM60.2683 45.7506C61.3538 44.4146 62.2522 42.7489 62.2522 41.28H60.2522C60.2522 42.0511 59.7105 43.2654 58.7161 44.4894L60.2683 45.7506ZM62.2522 41.28C62.2522 39.5381 61.7556 38.1074 60.9105 36.9624C60.0744 35.8294 58.9364 35.0284 57.7246 34.4636C55.3223 33.344 52.4729 33.08 50.5322 33.08V35.08C52.3515 35.08 54.8621 35.336 56.8798 36.2764C57.8779 36.7416 58.715 37.3556 59.3013 38.1501C59.8788 38.9326 60.2522 39.9419 60.2522 41.28H62.2522ZM50.5322 33.08C49.5467 33.08 48.6443 33.3753 47.9242 33.6253C47.1356 33.8991 46.6178 34.0927 46.1498 34.1219L46.2746 36.1181C47.0866 36.0673 47.9287 35.7409 48.5802 35.5147C49.3 35.2647 49.9177 35.08 50.5322 35.08V33.08ZM47.4599 56.196C47.4063 56.6246 47.2467 56.8664 47.088 57.0036C46.9242 57.1453 46.6864 57.24 46.3722 57.24V59.24C47.098 59.24 47.8202 59.0147 48.3963 58.5164C48.9777 58.0136 49.338 57.2954 49.4445 56.444L47.4599 56.196ZM46.3722 57.24C45.0687 57.24 43.5322 56.0765 43.5322 54.4H41.5322C41.5322 57.3635 44.1557 59.24 46.3722 59.24V57.24ZM43.5321 54.4116C43.6108 47.6427 44.3112 43.8231 46.4431 37.2693L44.5412 36.6507C42.3532 43.3769 41.6135 47.3973 41.5323 54.3884L43.5321 54.4116ZM46.4584 37.2177C46.5151 37.005 46.7111 36.752 47.1715 36.5331C47.625 36.3176 48.2137 36.2 48.7722 36.2V34.2C47.9706 34.2 47.0794 34.3624 46.3128 34.7269C45.5533 35.088 44.7892 35.715 44.526 36.7023L46.4584 37.2177ZM48.7722 36.2C49.2372 36.2 49.5608 36.2868 49.7312 36.3854C49.807 36.4294 49.8305 36.4626 49.836 36.4714C49.8383 36.475 49.8522 36.4946 49.8522 36.56H51.8522C51.8522 35.672 51.375 35.0261 50.7332 34.6546C50.1436 34.3132 49.4272 34.2 48.7722 34.2V36.2ZM49.8794 36.3284C48.2563 43.1454 47.9324 49.7212 47.4549 56.247L49.4495 56.393C49.932 49.7988 50.2481 43.4146 51.825 36.7916L49.8794 36.3284ZM54.1322 49.8C55.0915 49.8 55.9263 49.5557 57.1014 48.7422L55.963 47.0978C55.0581 47.7243 54.6129 47.8 54.1322 47.8V49.8ZM57.2393 47.2129C56.784 46.7576 56.3744 46.3558 55.9008 46.1114C55.3706 45.8377 54.8506 45.8 54.2922 45.8V47.8C54.7738 47.8 54.8938 47.8423 54.9835 47.8886C55.1299 47.9642 55.3204 48.1224 55.8251 48.6271L57.2393 47.2129ZM54.2091 45.8035C53.6561 45.8495 53.1115 45.9705 52.6725 46.2238C52.2106 46.4903 51.7722 46.9736 51.7722 47.68H53.7722C53.7722 47.7668 53.7433 47.8526 53.7003 47.9156C53.6635 47.9693 53.6378 47.9759 53.6719 47.9562C53.7528 47.9095 53.9683 47.8305 54.3752 47.7965L54.2091 45.8035ZM51.7722 47.68C51.7722 48.4725 52.1914 49.0413 52.6875 49.3721C53.1488 49.6796 53.69 49.8 54.1322 49.8V47.8C54.0835 47.8 54.0181 47.7925 53.9499 47.7736C53.8816 47.7548 53.8298 47.7299 53.7969 47.7079C53.7654 47.6869 53.7628 47.6768 53.7681 47.6858C53.7765 47.7001 53.7722 47.7056 53.7722 47.68H51.7722Z" fill="url(#paint3_linear_156_272)"/>
<defs>
<linearGradient id="paint0_linear_156_272" x1="223.5" y1="16" x2="234.364" y2="100.679" gradientUnits="userSpaceOnUse">
<stop stop-color="#081C65"/>
<stop offset="1" stop-color="#13ADDF"/>
</linearGradient>
<linearGradient id="paint1_linear_156_272" x1="68.7829" y1="21.58" x2="90.2352" y2="97.9059" gradientUnits="userSpaceOnUse">
<stop stop-color="#DC3545"/>
<stop offset="1" stop-color="#1C1F23"/>
</linearGradient>
<linearGradient id="paint2_linear_156_272" x1="34.5" y1="12" x2="63.1469" y2="87.1534" gradientUnits="userSpaceOnUse">
<stop stop-color="#081C65"/>
<stop offset="1" stop-color="#13ADDF"/>
</linearGradient>
<linearGradient id="paint3_linear_156_272" x1="-17.5755" y1="17.58" x2="22.9419" y2="66.1018" gradientUnits="userSpaceOnUse">
<stop stop-color="#DC3545"/>
<stop offset="1" stop-color="#1C1F23"/>
</linearGradient>
</defs>
</svg>
